<?xml version="1.0" encoding="UTF-8"?>
<svg id="Layer_1" xmlns="http://www.w3.org/2000/svg" version="1.1" xmlns:xlink="http://www.w3.org/1999/xlink" viewBox="0 0 500 145.97">
  <!-- Generator: Adobe Illustrator 29.7.1, SVG Export Plug-In . SVG Version: 2.1.1 Build 8)  -->
  <defs>
    <style>
      .st0 {
        fill: #fff;
      }

      .st1 {
        fill: url(#linear-gradient);
      }
    </style>
    <linearGradient id="linear-gradient" x1="1.01" y1="73.48" x2="500" y2="73.48" gradientUnits="userSpaceOnUse">
      <stop offset="0" stop-color="#006c67"/>
      <stop offset="1" stop-color="#531cb3"/>
    </linearGradient>
  </defs>
  <path class="st1" d="M41.01,1h458.99v104.97c0,22.08-17.92,40-40,40H1.01V41C1.01,18.92,18.93,1,41.01,1Z"/>
  <g>
    <path class="st0" d="M65.05,100.91c-3.89,0-7.4-.6-10.51-1.8-3.12-1.2-5.77-2.92-7.97-5.18-2.2-2.26-3.88-4.97-5.04-8.14-1.16-3.17-1.74-6.72-1.74-10.65s.58-7.33,1.75-10.47c1.17-3.14,2.85-5.84,5.04-8.1s4.81-3.99,7.87-5.22c3.06-1.23,6.46-1.84,10.2-1.84s6.98.64,9.88,1.91c2.9,1.27,5.37,3.01,7.42,5.21s3.61,4.71,4.69,7.52c1.08,2.82,1.61,5.77,1.61,8.85,0,1.95-.15,3.85-.45,5.73-.3,1.87-.81,3.56-1.54,5.07s-1.73,2.7-2.99,3.59-2.86,1.33-4.79,1.33c-1.01,0-2-.16-2.97-.49-.97-.33-1.8-.87-2.47-1.64s-1.07-1.8-1.18-3.09h-.2c-.66,1.48-1.7,2.73-3.13,3.76s-3.21,1.54-5.35,1.54c-2.38,0-4.41-.61-6.1-1.84-1.69-1.23-3-2.89-3.92-4.98-.92-2.1-1.38-4.43-1.38-7.02s.51-4.76,1.52-6.76,2.39-3.59,4.14-4.77c1.75-1.18,3.73-1.77,5.94-1.77,1.93,0,3.59.43,4.98,1.29,1.39.86,2.42,1.87,3.07,3.03h.25v-3.73h3.4v18.94c0,1.4.28,2.5.83,3.28.55.79,1.44,1.18,2.65,1.18,1.46,0,2.65-.48,3.58-1.45s1.61-2.39,2.05-4.27c.44-1.88.66-4.21.66-7s-.46-5.21-1.38-7.65c-.92-2.44-2.25-4.61-3.99-6.51s-3.87-3.4-6.38-4.5c-2.52-1.1-5.37-1.66-8.57-1.66s-6.07.54-8.67,1.61c-2.6,1.08-4.84,2.61-6.71,4.6-1.87,1.99-3.31,4.37-4.32,7.14s-1.52,5.86-1.52,9.26.51,6.5,1.52,9.28,2.47,5.15,4.38,7.11,4.21,3.48,6.89,4.53c2.68,1.06,5.71,1.59,9.08,1.59,1.5,0,2.96-.15,4.39-.44,1.43-.29,2.75-.65,3.94-1.08,1.2-.43,2.18-.85,2.95-1.26l1.09,2.97c-1.01.54-2.21,1.04-3.59,1.49-1.38.45-2.85.8-4.39,1.07-1.54.26-3.05.39-4.53.39ZM63.33,85.52c1.83,0,3.38-.43,4.64-1.29s2.22-2.09,2.86-3.69.97-3.51.97-5.74-.34-4.1-1.02-5.56c-.68-1.46-1.65-2.54-2.9-3.26-1.25-.71-2.74-1.07-4.46-1.07s-3.09.45-4.34,1.35c-1.24.9-2.21,2.1-2.9,3.59-.69,1.5-1.04,3.14-1.04,4.94,0,1.91.31,3.68.93,5.3s1.54,2.94,2.76,3.93c1.23.99,2.73,1.49,4.5,1.49Z"/>
    <path class="st0" d="M119.55,106.63c-5.32,0-9.91-.79-13.78-2.36s-6.7-4.01-8.51-7.3-2.3-7.5-1.48-12.62h15.79c-.22,1.86-.01,3.44.62,4.73.63,1.29,1.65,2.26,3.06,2.92,1.41.66,3.19.99,5.33.99,1.78,0,3.31-.22,4.58-.66s2.29-1.05,3.04-1.83c.75-.78,1.21-1.68,1.38-2.69.16-.93,0-1.75-.47-2.45-.48-.7-1.34-1.34-2.59-1.91-1.25-.58-2.97-1.1-5.16-1.56l-5.96-1.32c-5.21-1.15-9.14-3.12-11.78-5.9-2.65-2.78-3.57-6.57-2.78-11.37.63-3.89,2.16-7.3,4.58-10.22s5.55-5.19,9.38-6.83,8.16-2.45,13.01-2.45,9.19.83,12.69,2.49,6.06,3.99,7.69,6.99c1.63,3,2.13,6.5,1.5,10.51h-15.95c.19-2-.29-3.56-1.44-4.67s-3.07-1.67-5.76-1.67c-1.7,0-3.13.2-4.3.6-1.17.4-2.06.95-2.69,1.67-.63.71-1.03,1.52-1.19,2.43-.16.96-.02,1.8.43,2.53s1.24,1.36,2.36,1.89c1.12.53,2.62,1.01,4.48,1.42l4.81,1.07c3.26.74,6.01,1.69,8.24,2.86,2.23,1.17,3.99,2.54,5.26,4.13s2.12,3.37,2.53,5.33.42,4.11.04,6.44c-.66,4.03-2.13,7.45-4.42,10.26-2.29,2.81-5.33,4.94-9.11,6.39s-8.27,2.18-13.45,2.18Z"/>
    <path class="st0" d="M150.14,105.89l7.61-45.97h16.53l-7.61,45.97h-16.53ZM166.76,55.23c-2.25,0-4.04-.74-5.39-2.22-1.34-1.48-1.85-3.26-1.52-5.35.36-2.11,1.45-3.9,3.29-5.37,1.84-1.47,3.88-2.2,6.13-2.2s4.04.73,5.39,2.2,1.84,3.26,1.48,5.37c-.33,2.08-1.41,3.87-3.25,5.35s-3.88,2.22-6.13,2.22Z"/>
    <path class="st0" d="M192.29,106.46c-4.39,0-8.06-1.51-11.02-4.52s-4.44-7.54-4.44-13.57c0-3.48.46-6.94,1.38-10.36s2.28-6.55,4.09-9.38,4.04-5.08,6.7-6.76,5.73-2.53,9.21-2.53c2.44,0,4.5.43,6.17,1.3s2.99,1.99,3.97,3.39,1.62,2.88,1.95,4.44h.41l3.95-23.85h16.53l-10.16,61.27h-16.37l1.4-7.57h-.53c-.88,1.75-1.97,3.23-3.27,4.44s-2.79,2.12-4.46,2.76-3.51.95-5.51.95ZM198.79,93.8c1.7,0,3.19-.47,4.48-1.42s2.37-2.19,3.25-3.72,1.54-3.18,1.99-4.93.68-3.45.68-5.1c0-2.11-.44-3.74-1.32-4.89s-2.15-1.73-3.82-1.73-3.23.49-4.52,1.46-2.36,2.24-3.21,3.8-1.49,3.23-1.91,5.02-.64,3.48-.64,5.1c0,2.06.42,3.64,1.25,4.75s2.09,1.67,3.76,1.67Z"/>
    <path class="st0" d="M252.33,106.87c-4.33,0-8.09-.76-11.27-2.26-3.18-1.51-5.63-3.67-7.34-6.5s-2.57-6.21-2.57-10.16.64-7.35,1.91-10.77,3.11-6.48,5.51-9.15,5.3-4.79,8.7-6.35,7.22-2.34,11.47-2.34c3.48,0,6.66.56,9.54,1.67s5.17,2.71,6.89,4.81,2.57,4.64,2.57,7.63-.98,5.58-2.94,7.44-4.77,3.26-8.43,4.19-8.05,1.55-13.16,1.85-10.84.45-17.17.45l1.52-9.05c5.46,0,9.85-.04,13.18-.12s5.87-.25,7.61-.51,2.92-.63,3.54-1.11.93-1.1.93-1.87c0-1.21-.5-2.14-1.5-2.8s-2.43-.99-4.3-.99c-2.33,0-4.17.65-5.51,1.95s-2.32,2.91-2.94,4.83-1.01,3.85-1.19,5.8-.27,3.56-.27,4.85.19,2.49.56,3.54,1.03,1.86,1.97,2.45,2.27.88,3.97.88c1.86,0,3.48-.36,4.85-1.07s2.28-1.74,2.71-3.08l14.68,1.07c-1.34,4.36-4.07,7.9-8.18,10.63s-9.22,4.09-15.34,4.09Z"/>
    <path class="st0" d="M280.09,105.89l10.16-61.27h16.53l-10.16,61.27h-16.53ZM296.7,95.03l3.25-19.66h2.3l13.65-15.46h18.59l-22.66,24.1h-4.69l-10.44,11.02ZM308.46,105.89l-7.53-18.18,12.75-11.76,13.61,29.94h-18.83Z"/>
    <path class="st0" d="M331.2,105.89l7.61-45.97h16.53l-7.61,45.97h-16.53ZM347.81,55.23c-2.25,0-4.04-.74-5.39-2.22s-1.85-3.26-1.52-5.35c.36-2.11,1.45-3.9,3.29-5.37s3.88-2.2,6.13-2.2,4.04.73,5.39,2.2,1.84,3.26,1.48,5.37c-.33,2.08-1.41,3.87-3.25,5.35s-3.88,2.22-6.13,2.22Z"/>
    <path class="st0" d="M378.98,106.71c-4.39,0-8.14-.82-11.27-2.47s-5.52-3.95-7.18-6.91-2.49-6.43-2.49-10.4c0-3.45.55-6.83,1.64-10.12s2.76-6.25,5-8.88,5.05-4.72,8.45-6.27,7.39-2.32,11.97-2.32c3.18,0,6.03.41,8.55,1.23s4.67,1.99,6.44,3.52,3.08,3.36,3.95,5.51,1.21,4.56,1.05,7.22l-15.58,2.26c0-1.21-.06-2.27-.19-3.19s-.35-1.69-.68-2.32-.79-1.1-1.38-1.42-1.34-.47-2.24-.47c-1.92,0-3.54.53-4.87,1.58s-2.39,2.42-3.19,4.09-1.37,3.43-1.73,5.26-.53,3.54-.53,5.1c0,1.45.17,2.68.51,3.68s.88,1.75,1.6,2.24,1.64.74,2.73.74c.9,0,1.8-.16,2.67-.49s1.7-.82,2.47-1.46,1.46-1.45,2.08-2.41,1.12-2.06,1.5-3.29l14.8,2.22c-.74,2.74-1.81,5.2-3.21,7.38s-3.12,4.04-5.16,5.59-4.38,2.73-7.01,3.56-5.54,1.23-8.72,1.23Z"/>
    <path class="st0" d="M406.82,105.89l10.16-61.27h16.53l-10.16,61.27h-16.53ZM423.43,95.03l3.25-19.66h2.3l13.65-15.46h18.59l-22.66,24.1h-4.69l-10.44,11.02ZM435.19,105.89l-7.53-18.18,12.75-11.76,13.61,29.94h-18.83Z"/>
  </g>
</svg>