<?xml version="1.0" encoding="UTF-8"?>
<svg id="Layer_1" xmlns="http://www.w3.org/2000/svg" version="1.1" viewBox="0 0 160.95 262.13">
  <!-- Generator: Adobe Illustrator 29.7.1, SVG Export Plug-In . SVG Version: 2.1.1 Build 8)  -->
  <defs>
    <style>
      .st0 {
        fill: #1e1e1e;
      }
    </style>
  </defs>
  <g id="_033---Apps">
    <path id="Shape" class="st0" d="M138.45,5.28H20.16C10.83,5.28,3.26,12.85,3.26,22.19h0v219.72c0,9.34,7.57,16.9,16.9,16.9h118.29c9.34,0,16.9-7.57,16.9-16.9h0V22.19c0-9.34-7.57-16.9-16.9-16.9ZM111.81,13.73l-5.41,5.79c-1.55,1.65-3.7,2.61-5.96,2.66h-41.83c-2.34,0-4.57-.96-6.17-2.66l-5.62-5.79h64.99ZM11.71,22.19c0-4.67,3.78-8.45,8.44-8.45,0,0,0,0,.01,0h15.08l10.82,11.6c3.2,3.4,7.67,5.33,12.34,5.32h42.04c4.68,0,9.14-1.93,12.34-5.35l10.59-11.6h15.08c4.67,0,8.45,3.78,8.45,8.45v198.63c0,4.67-3.78,8.45-8.45,8.45H20.16c-4.67,0-8.45-3.78-8.45-8.45V22.19ZM138.45,250.36H20.16c-4.67,0-8.45-3.78-8.45-8.45v-6.59c2.55,1.54,5.47,2.35,8.45,2.37h118.29c2.98-.01,5.9-.83,8.45-2.37v6.59c0,4.67-3.78,8.45-8.45,8.45h0Z"/>
    <path id="Shape-2" class="st0" d="M41.28,123.59h25.35c4.67,0,8.45-3.78,8.45-8.44h0v-25.36c0-4.67-3.78-8.45-8.45-8.45h-25.35c-4.67,0-8.45,3.78-8.45,8.45v25.35c0,4.67,3.78,8.45,8.44,8.45h0ZM41.28,89.79h25.35v25.34h-25.35v-25.34Z"/>
    <path id="Shape-3" class="st0" d="M91.99,123.59h25.35c4.67,0,8.45-3.78,8.45-8.44h0v-25.36c0-4.67-3.78-8.45-8.45-8.45h-25.35c-4.67,0-8.45,3.78-8.45,8.45v25.35c0,4.67,3.78,8.45,8.44,8.45h0ZM91.99,89.79h25.35v25.34h-25.35v-25.34Z"/>
    <path id="Shape-4" class="st0" d="M41.28,174.3h25.35c4.67,0,8.45-3.78,8.45-8.44h0v-25.36c0-4.67-3.78-8.45-8.45-8.45h-25.35c-4.67,0-8.45,3.78-8.45,8.45v25.35c0,4.67,3.78,8.45,8.44,8.45h0ZM41.28,140.5h25.35v25.34h-25.35v-25.34Z"/>
    <path id="Shape-5" class="st0" d="M87.77,157.4h12.68v12.68c-.08,2.33,1.75,4.29,4.08,4.37,2.33.08,4.29-1.75,4.37-4.08,0-.1,0-.19,0-.29v-12.68h12.68c2.33.08,4.29-1.75,4.37-4.08.08-2.33-1.75-4.29-4.08-4.37-.1,0-.19,0-.29,0h-12.68v-12.68c.08-2.33-1.75-4.29-4.08-4.37-2.33-.08-4.29,1.75-4.37,4.08,0,.1,0,.19,0,.29v12.68h-12.68c-2.33-.08-4.29,1.75-4.37,4.08-.08,2.33,1.75,4.29,4.08,4.37.1,0,.19,0,.29,0Z"/>
  </g>
</svg>