<?xml version="1.0" encoding="UTF-8"?>
<svg id="Layer_1" data-name="Layer 1" xmlns="http://www.w3.org/2000/svg" viewBox="0 0 490 500">
  <defs>
    <style>
      .cls-1 {
        fill: #4285f4;
      }

      .cls-2 {
        fill: #fbbc05;
      }

      .cls-3 {
        fill: #34a853;
      }

      .cls-4 {
        fill: #eb4335;
      }
    </style>
  </defs>
  <path class="cls-1" d="M490,255.56c0-20.56-1.67-35.56-5.28-51.11h-234.72v92.78h137.78c-2.78,23.06-17.78,57.78-51.11,81.11l-.47,3.11,74.21,57.49,5.14.51c47.22-43.61,74.44-107.78,74.44-183.89"/>
  <path class="cls-3" d="M250,500c67.5,0,124.17-22.22,165.56-60.56l-78.89-61.11c-21.11,14.72-49.44,25-86.67,25-66.11,0-122.22-43.61-142.22-103.89l-2.93.25-77.17,59.72-1.01,2.81c41.11,81.67,125.56,137.78,223.33,137.78"/>
  <path class="cls-2" d="M107.78,299.44c-5.28-15.56-8.33-32.22-8.33-49.44s3.05-33.89,8.05-49.44l-.14-3.31-78.14-60.68-2.56,1.22C9.72,171.67,0,209.72,0,250s9.72,78.33,26.67,112.22l81.11-62.78"/>
  <path class="cls-4" d="M250,96.67c46.94,0,78.61,20.28,96.67,37.22l70.56-68.89C373.89,24.72,317.5,0,250,0,152.22,0,67.78,56.11,26.67,137.78l80.83,62.78c20.28-60.28,76.39-103.89,142.5-103.89"/>
</svg>