<?xml version="1.0" encoding="UTF-8"?>
<svg id="Layer_1" xmlns="http://www.w3.org/2000/svg" version="1.1" viewBox="0 0 365.09 269.82">
  <!-- Generator: Adobe Illustrator 29.7.1, SVG Export Plug-In . SVG Version: 2.1.1 Build 8)  -->
  <defs>
    <style>
      .st0 {
        fill: #553e98;
      }

      .st1 {
        fill: #676867;
      }
    </style>
  </defs>
  <g id="confirmation_16797634">
    <path id="Path_15" class="st1" d="M11.69,259.29c.19.14.39.28.6.39,3.99,3.8,9.29,5.93,14.8,5.93h256.03c5.55-.02,10.89-2.15,14.93-5.96.19-.11.38-.24.56-.37.11-.15.22-.31.31-.47,3.84-4.05,5.98-9.41,5.99-14.98v-95.47c0-3.27-2.65-5.92-5.92-5.92s-5.92,2.65-5.92,5.92v95.48c-.01.5-.06,1-.14,1.49l-82.11-81.37,33.56-33.21c2.35-2.27,2.42-6.02.14-8.37-2.27-2.35-6.02-2.42-8.37-.14-.03.03-.06.06-.1.1l-73.9,73.14c-3.91,3.81-10.14,3.82-14.06.02l-35.92-35.58s-.04-.07-.06-.09c-.03-.03-.07-.04-.11-.07L25.74,74.23c.44-.07.89-.12,1.34-.13h189.51c3.27,0,5.92-2.65,5.91-5.92,0-3.27-2.65-5.91-5.91-5.91H27.08c-5.72-.03-11.22,2.25-15.23,6.33-4.22,4.05-6.59,9.66-6.55,15.51v159.74c-.02,5.56,2.14,10.92,6.03,14.9.11.19.24.37.37.54h-.01ZM17.14,243.84V84.1c0-.53.06-1.06.15-1.58l82.17,81.45L17.28,245.4c-.09-.52-.14-1.04-.15-1.56h0ZM155.09,210.13c5.74.02,11.26-2.22,15.36-6.24l31.94-31.61,82.11,81.37c-.46.08-.92.12-1.39.14H27.08c-.44-.01-.87-.06-1.3-.13l82.1-81.35,31.88,31.61c4.09,4,9.6,6.23,15.32,6.22h.02Z"/>
    <path id="Path_16" class="st0" d="M294.42,4.73c-36.45,0-65.99,29.55-65.99,65.99s29.55,65.99,65.99,65.99,65.99-29.55,65.99-65.99h0c-.06-36.42-29.57-65.93-65.99-65.99ZM324.78,58.77l-32.2,32.26c-1.13,1.09-2.63,1.71-4.2,1.72-1.57-.02-3.07-.63-4.2-1.72l-20.18-20.24c-2.3-2.31-2.3-6.05,0-8.35,2.31-2.3,6.05-2.3,8.35,0l16.01,16.04,28.05-28.05c2.3-2.3,6.03-2.31,8.34,0,0,0,0,0,0,0,2.3,2.22,2.38,5.88.16,8.19-.05.05-.1.11-.16.16h.01Z"/>
  </g>
</svg>