<?xml version="1.0" encoding="UTF-8"?>
<svg id="Layer_1" xmlns="http://www.w3.org/2000/svg" xmlns:xlink="http://www.w3.org/1999/xlink" version="1.1" viewBox="0 0 200 200">
  <!-- Generator: Adobe Illustrator 29.6.1, SVG Export Plug-In . SVG Version: 2.1.1 Build 9)  -->
  <defs>
    <style>
      .st0 {
        fill: none;
        stroke: #fff;
        stroke-miterlimit: 10;
        stroke-width: 8px;
      }

      .st1 {
        fill: url(#linear-gradient);
      }
    </style>
    <linearGradient id="linear-gradient" x1="13.3" y1="49.8" x2="185.8" y2="149.4" gradientUnits="userSpaceOnUse">
      <stop offset="0" stop-color="#006c67"/>
      <stop offset="0" stop-color="#00524e"/>
      <stop offset=".1" stop-color="#003432"/>
      <stop offset=".2" stop-color="#001d1c"/>
      <stop offset=".3" stop-color="#000c0c"/>
      <stop offset=".4" stop-color="#000302"/>
      <stop offset=".5" stop-color="#000"/>
      <stop offset=".6" stop-color="#010002"/>
      <stop offset=".7" stop-color="#05010b"/>
      <stop offset=".8" stop-color="#0c041a"/>
      <stop offset=".8" stop-color="#16072f"/>
      <stop offset=".9" stop-color="#220b4b"/>
      <stop offset=".9" stop-color="#32116d"/>
      <stop offset="1" stop-color="#441794"/>
      <stop offset="1" stop-color="#531cb3"/>
    </linearGradient>
  </defs>
  <circle class="st1" cx="99.6" cy="99.6" r="99.6"/>
  <path class="st0" d="M120.9,92.4c-5.1,0-10-2.3-13.8-6.4-3.7-4-6-9.4-6.4-15-.4-6.1,1.4-11.7,5.2-15.7,3.8-4.1,9.1-6.3,15-6.3s11.2,2.2,15,6.3c3.8,4.1,5.7,9.7,5.2,15.7-.4,5.7-2.7,11-6.4,15-3.8,4.1-8.7,6.4-13.8,6.4ZM153.4,139.7h-65c-2.1,0-4.1-1-5.4-2.6-1.4-1.8-1.9-4.2-1.3-6.4,2.1-8.3,7.2-15.3,14.9-20,6.8-4.2,15.4-6.5,24.4-6.5s17.5,2.2,24.4,6.4c7.7,4.7,12.8,11.7,14.9,20.1.6,2.2,0,4.6-1.3,6.4-1.3,1.7-3.3,2.6-5.4,2.6ZM68.4,89.6c-8,0-15.1-7.5-15.7-16.6-.3-4.7,1.1-9,4.1-12.2,2.9-3.2,7.1-4.9,11.6-4.9s8.7,1.7,11.6,4.9c3,3.2,4.4,7.5,4.1,12.2-.7,9.2-7.7,16.6-15.7,16.6ZM83.4,102.2c-4-2-9.2-2.9-15-2.9s-13.2,1.8-18.4,4.9c-5.8,3.6-9.7,8.9-11.3,15.2-.5,1.8,0,3.8,1.1,5.3,1.1,1.4,2.8,2.2,4.6,2.2h25.3c.9,0,1.6-.6,1.8-1.5,0-.1,0-.3,0-.4,1.9-7.8,6.5-14.3,13.2-19.1.8-.6,1-1.7.4-2.5-.1-.2-.3-.4-.6-.5-.4-.2-.8-.4-1.2-.7h0Z"/>
</svg>