<?xml version="1.0" encoding="UTF-8"?>
<svg id="Layer_1" xmlns="http://www.w3.org/2000/svg" xmlns:xlink="http://www.w3.org/1999/xlink" version="1.1" viewBox="0 0 587.4 590.6">
  <!-- Generator: Adobe Illustrator 29.7.1, SVG Export Plug-In . SVG Version: 2.1.1 Build 8)  -->
  <defs>
    <style>
      .st0 {
        fill: url(#linear-gradient);
      }

      .st1 {
        fill: none;
        stroke: #2f2f4b;
        stroke-linecap: round;
        stroke-miterlimit: 10;
        stroke-width: 32px;
      }
    </style>
    <linearGradient id="linear-gradient" x1="148.2" y1="44.4" x2="438.2" y2="546.8" gradientUnits="userSpaceOnUse">
      <stop offset="0" stop-color="#531cb3"/>
      <stop offset="1" stop-color="#006c67"/>
    </linearGradient>
  </defs>
  <path class="st0" d="M293.2,5.6C133,5.6,3.2,135.5,3.2,295.6s129.8,290,290,290,290-129.8,290-290S453.3,5.6,293.2,5.6ZM293.2,562.8c-147.6,0-267.2-119.6-267.2-267.2S145.6,28.4,293.2,28.4s267.2,119.6,267.2,267.2-119.6,267.2-267.2,267.2Z"/>
  <path class="st1" d="M295.2,232.8l-66.3,109.8c-9.9,17-4.2,38.9,12.9,48.9,16.7,9.7,38,4.4,48.3-11.9l87-143.8c17.6-28.4,8.9-65.8-19.5-83.4-28.4-17.6-65.8-8.9-83.4,19.5-.3.4-.5.8-.8,1.3l-87.5,144.8c-24.9,39.9-12.7,92.4,27.2,117.3,39.9,24.9,92.4,12.7,117.3-27.2.4-.7.9-1.4,1.3-2.1l81.8-135.3"/>
</svg>