<svg xmlns="http://www.w3.org/2000/svg" width="22.681" height="22.681" viewBox="0 0 22.681 22.681">
  <path id="calendar-plus-alt-svgrepo-com" d="M3,10.06H24.181M13.59,20.651V13.59m3.53,3.531H10.06M7.707,3V5.353M19.474,3V5.353M6.765,24.181h13.65a5.847,5.847,0,0,0,2.481-.257A2.353,2.353,0,0,0,23.924,22.9a5.847,5.847,0,0,0,.257-2.481V9.119a5.846,5.846,0,0,0-.257-2.48A2.353,2.353,0,0,0,22.9,5.61a5.847,5.847,0,0,0-2.481-.257H6.765a5.847,5.847,0,0,0-2.48.257A2.353,2.353,0,0,0,3.257,6.638,5.847,5.847,0,0,0,3,9.119v11.3A5.847,5.847,0,0,0,3.257,22.9a2.353,2.353,0,0,0,1.028,1.028A5.846,5.846,0,0,0,6.765,24.181Z" transform="translate(-2.25 -2.25)" fill="none" stroke="#fff" stroke-linecap="round" stroke-linejoin="round" stroke-width="1.5"/>
</svg>
