<?xml version="1.0" encoding="UTF-8"?>
<svg id="Layer_1" xmlns="http://www.w3.org/2000/svg" version="1.1" viewBox="0 0 512 512">
  <!-- Generator: Adobe Illustrator 29.7.1, SVG Export Plug-In . SVG Version: 2.1.1 Build 8)  -->
  <defs>
    <style>
      .st0 {
        fill: #fff;
      }

      .st1, .st2 {
        fill: none;
      }

      .st1, .st2, .st3 {
        stroke: #f70000;
        stroke-linejoin: round;
        stroke-width: 32px;
      }

      .st1, .st3 {
        stroke-linecap: round;
      }

      .st3 {
        fill: #f70000;
      }
    </style>
  </defs>
  <path class="st1" d="M256,56v120c0,17.67,14.33,32,32,32h120"/>
  <rect class="st3" x="152" y="274" width="208" height="102"/>
  <g>
    <path class="st2" d="M416,221.25v194.75c0,26.51-21.49,48-48,48h-224c-26.51,0-48-21.49-48-48V96c0-26.51,21.49-48,48-48h98.75c8.48,0,16.62,3.37,22.62,9.37l141.26,141.26c6,6,9.37,14.14,9.37,22.62h0Z"/>
    <g>
      <path class="st0" d="M161.19,358.73v-72.73h31.39c5.4,0,10.12,1.06,14.17,3.2s7.2,5.13,9.45,8.98c2.25,3.86,3.37,8.37,3.37,13.53s-1.15,9.72-3.46,13.53c-2.31,3.81-5.54,6.75-9.69,8.81-4.15,2.06-9,3.09-14.54,3.09h-18.75v-15.34h14.77c2.32,0,4.3-.41,5.95-1.22,1.65-.82,2.91-1.98,3.8-3.5.89-1.52,1.33-3.3,1.33-5.36s-.44-3.86-1.33-5.34c-.89-1.48-2.15-2.62-3.8-3.41-1.65-.79-3.63-1.19-5.95-1.19h-6.96v56.96h-19.74Z"/>
      <path class="st0" d="M254.8,358.73h-27.98v-72.73h27.7c7.48,0,13.95,1.45,19.41,4.35s9.67,7.07,12.64,12.5c2.97,5.43,4.46,11.94,4.46,19.51s-1.48,14.08-4.44,19.51c-2.96,5.43-7.15,9.6-12.57,12.5-5.42,2.9-11.83,4.35-19.21,4.35ZM246.56,341.96h7.53c3.6,0,6.67-.58,9.22-1.74,2.54-1.16,4.49-3.16,5.82-6s2.01-6.79,2.01-11.86-.68-9.02-2.04-11.86c-1.36-2.84-3.35-4.84-5.97-6-2.62-1.16-5.82-1.74-9.61-1.74h-6.96v39.2Z"/>
      <path class="st0" d="M300.11,358.73v-72.73h51.14v15.91h-31.39v12.5h28.27v15.91h-28.27v28.41h-19.74Z"/>
    </g>
  </g>
</svg>