<?xml version="1.0" encoding="UTF-8"?>
<svg id="Layer_1" xmlns="http://www.w3.org/2000/svg" version="1.1" viewBox="0 0 512 512">
  <!-- Generator: Adobe Illustrator 29.7.1, SVG Export Plug-In . SVG Version: 2.1.1 Build 8)  -->
  <defs>
    <style>
      .st0 {
        fill: #fff;
      }

      .st1, .st2 {
        stroke-linecap: round;
      }

      .st1, .st2, .st3 {
        stroke: #29579d;
        stroke-linejoin: round;
        stroke-width: 32px;
      }

      .st1, .st3 {
        fill: none;
      }

      .st2 {
        fill: #29579d;
      }
    </style>
  </defs>
  <path class="st1" d="M256,56v120c0,17.67,14.33,32,32,32h120"/>
  <rect class="st2" x="147.69" y="274" width="214.31" height="102"/>
  <path class="st3" d="M416,221.25v194.75c0,26.51-21.49,48-48,48h-224c-26.51,0-48-21.49-48-48V96c0-26.51,21.49-48,48-48h98.75c8.48,0,16.62,3.37,22.62,9.37l141.26,141.26c6,6,9.37,14.14,9.37,22.62h0Z"/>
  <g>
    <path class="st0" d="M175.67,362.73h-27.98v-72.73h27.7c7.48,0,13.95,1.45,19.41,4.35,5.46,2.9,9.67,7.07,12.64,12.5,2.97,5.43,4.46,11.94,4.46,19.51s-1.48,14.08-4.44,19.51c-2.96,5.43-7.15,9.6-12.57,12.5-5.42,2.9-11.83,4.35-19.21,4.35ZM167.43,345.96h7.53c3.6,0,6.67-.58,9.21-1.74,2.54-1.16,4.49-3.16,5.82-6,1.34-2.84,2.01-6.79,2.01-11.86s-.68-9.02-2.04-11.86c-1.36-2.84-3.35-4.84-5.97-6-2.62-1.16-5.82-1.74-9.61-1.74h-6.96v39.2Z"/>
    <path class="st0" d="M291.44,326.36c0,8.1-1.57,14.92-4.72,20.47-3.15,5.55-7.4,9.75-12.75,12.61-5.35,2.85-11.32,4.28-17.9,4.28s-12.61-1.44-17.95-4.31c-5.34-2.88-9.58-7.09-12.71-12.64-3.14-5.55-4.71-12.35-4.71-20.4s1.57-14.92,4.71-20.47c3.14-5.55,7.37-9.75,12.71-12.61,5.34-2.85,11.32-4.28,17.95-4.28s12.55,1.43,17.9,4.28c5.35,2.85,9.6,7.06,12.75,12.61,3.15,5.55,4.72,12.38,4.72,20.47ZM271.12,326.36c0-4.36-.57-8.03-1.72-11.03-1.15-2.99-2.84-5.27-5.08-6.82-2.24-1.55-4.99-2.33-8.26-2.33s-6.02.78-8.26,2.33c-2.24,1.55-3.93,3.82-5.08,6.82-1.15,3-1.72,6.67-1.72,11.03s.57,8.03,1.72,11.03c1.15,3,2.84,5.27,5.08,6.82,2.24,1.55,4.99,2.33,8.26,2.33s6.02-.78,8.26-2.33c2.24-1.55,3.93-3.82,5.08-6.82,1.15-2.99,1.72-6.67,1.72-11.03Z"/>
    <path class="st0" d="M368.42,317.27h-20.03c-.14-1.66-.51-3.16-1.12-4.51-.6-1.35-1.43-2.51-2.48-3.5-1.05-.98-2.33-1.74-3.82-2.27-1.49-.53-3.18-.8-5.08-.8-3.31,0-6.11.81-8.4,2.42s-4.01,3.92-5.18,6.92c-1.17,3.01-1.76,6.62-1.76,10.83,0,4.45.6,8.17,1.79,11.17,1.2,3,2.93,5.24,5.2,6.75,2.27,1.5,5.01,2.25,8.2,2.25,1.82,0,3.46-.23,4.9-.69s2.7-1.13,3.76-2.01c1.06-.88,1.94-1.94,2.61-3.18.67-1.24,1.13-2.65,1.37-4.21l20.03.14c-.24,3.08-1.1,6.21-2.59,9.39-1.49,3.19-3.6,6.12-6.34,8.81-2.73,2.69-6.11,4.85-10.14,6.48-4.03,1.63-8.7,2.45-14.03,2.45-6.68,0-12.66-1.43-17.95-4.3-5.29-2.86-9.47-7.08-12.54-12.64-3.07-5.56-4.6-12.37-4.6-20.42s1.56-14.92,4.69-20.47c3.12-5.55,7.34-9.75,12.64-12.61s11.22-4.28,17.76-4.28c4.59,0,8.82.63,12.68,1.88,3.86,1.26,7.24,3.08,10.16,5.49,2.91,2.4,5.26,5.36,7.03,8.86s2.85,7.52,3.23,12.04Z"/>
  </g>
</svg>