<?xml version="1.0" encoding="UTF-8"?>
<svg id="Layer_1" xmlns="http://www.w3.org/2000/svg" version="1.1" xmlns:xlink="http://www.w3.org/1999/xlink" viewBox="0 0 200 200">
  <!-- Generator: Adobe Illustrator 29.7.1, SVG Export Plug-In . SVG Version: 2.1.1 Build 8)  -->
  <defs>
    <style>
      .st0 {
        fill: #fff;
      }

      .st1 {
        fill: url(#linear-gradient);
      }
    </style>
    <linearGradient id="linear-gradient" x1="14.44" y1="151.44" x2="185.56" y2="52.56" gradientTransform="translate(0 202) scale(1 -1)" gradientUnits="userSpaceOnUse">
      <stop offset="0" stop-color="#531cb3"/>
      <stop offset="1" stop-color="#006c67"/>
      <stop offset="1" stop-color="#006b66"/>
      <stop offset="1" stop-color="#00524e"/>
      <stop offset="1" stop-color="#001d1c"/>
      <stop offset="1" stop-color="#000c0c"/>
      <stop offset="1" stop-color="#000302"/>
      <stop offset="1" stop-color="#000"/>
      <stop offset="1" stop-color="#010002"/>
      <stop offset="1" stop-color="#05010b"/>
      <stop offset="1" stop-color="#0c041a"/>
      <stop offset="1" stop-color="#16072f"/>
      <stop offset="1" stop-color="#220b4b"/>
    </linearGradient>
  </defs>
  <circle class="st1" cx="100" cy="100" r="98.8"/>
  <path class="st0" d="M70.67,84.56c-.29.66,0,1.42.67,1.71.17.08.36.11.54.11h9.05c2.49,0,4.51,2.02,4.51,4.51v56.87h26.18v-56.87c0-2.49,2.02-4.51,4.51-4.51h9.05c.97,0,1.59-.99,1.21-1.82l-26.48-35.96-.25-.38c-.38-.63-1.19-.83-1.82-.45-.19.11-.34.27-.45.45l-.25.38-26.48,35.96ZM71.88,95.41c-5.7,0-10.33-4.62-10.33-10.32,0-2,.58-3.95,1.67-5.63l26.54-36.05c3.03-4.85,9.41-6.33,14.27-3.3,1.34.83,2.47,1.96,3.3,3.3l26.54,36.05c3.11,4.78,1.75,11.18-3.04,14.28-1.68,1.09-3.63,1.67-5.63,1.67h-4.54v56.87c0,2.49-2.02,4.51-4.51,4.51h-35.2c-2.49,0-4.51-2.02-4.51-4.51v-56.87h-4.54Z"/>
</svg>