<svg id="Group_276" data-name="Group 276" xmlns="http://www.w3.org/2000/svg" xmlns:xlink="http://www.w3.org/1999/xlink" width="345" height="298.336" viewBox="0 0 345 298.336">
  <defs>
    <clipPath id="clip-path">
      <rect id="Rectangle_1219" data-name="Rectangle 1219" width="345" height="298.336" fill="none"/>
    </clipPath>
  </defs>
  <g id="Group_275" data-name="Group 275" clip-path="url(#clip-path)">
    <path id="Path_1382" data-name="Path 1382" d="M292.9,231.691c-52.364,46.824-137.262,46.824-189.626,0s-52.363-122.74,0-169.563,137.262-46.824,189.626,0,52.363,122.739,0,169.563" transform="translate(-7.021 -2.963)" fill="#f5f5ff"/>
    <path id="Path_1383" data-name="Path 1383" d="M267.975,300.836h-6.367a50.821,50.821,0,0,1-50.821-50.82v-39.2a50.821,50.821,0,0,1,50.821-50.821h6.367A50.821,50.821,0,0,1,318.8,210.813v39.2a50.821,50.821,0,0,1-50.821,50.82" transform="translate(-23.125 -17.552)" fill="#545fac"/>
    <path id="Path_1384" data-name="Path 1384" d="M267.975,300.836h-6.367a50.821,50.821,0,0,1-50.821-50.82v-39.2a50.821,50.821,0,0,1,50.821-50.821h6.367A50.821,50.821,0,0,1,318.8,210.813v39.2a50.821,50.821,0,0,1-50.821,50.82" transform="translate(-23.125 -17.552)" fill="#545fac"/>
    <path id="Path_1385" data-name="Path 1385" d="M257.983,300.836H243.9A48.037,48.037,0,0,1,195.866,252.8V208.029A48.037,48.037,0,0,1,243.9,159.992h14.081a48.037,48.037,0,0,1,48.037,48.037V252.8a48.037,48.037,0,0,1-48.037,48.037" transform="translate(-21.488 -17.552)" fill="#3f4781"/>
    <path id="Path_1386" data-name="Path 1386" d="M207.154,116.019s-15.268,46.634-19.925,66.064" transform="translate(-20.54 -12.728)" fill="none" stroke="#000" stroke-linecap="round" stroke-miterlimit="10" stroke-width="1"/>
    <path id="Path_1387" data-name="Path 1387" d="M279.549,95.3s-8.959-7.838-9.387-8.023-5.58-4.742-11.673-4.047l12.476,28.244s-4.687,3.947-3.775,6.343,4.233-1.533,5.944-2.26,4.54-4.045,5.362-5.479S279.549,95.3,279.549,95.3" transform="translate(-28.358 -9.123)" fill="#ba6f4c"/>
    <path id="Path_1388" data-name="Path 1388" d="M266.244,94.032s3.234,7.34,7.6,9.088" transform="translate(-29.209 -10.316)" fill="none" stroke="#000" stroke-linecap="round" stroke-miterlimit="10" stroke-width="1"/>
    <path id="Path_1389" data-name="Path 1389" d="M253.024,91.578s32.507,42.994,33.556,69.21c0,0-28.575,47.538-94.639,11.623l11.8-58.025Z" transform="translate(-21.057 -10.047)"/>
    <path id="Path_1390" data-name="Path 1390" d="M265.36,98.056s19.225,27.264,32.857,54.529" transform="translate(-29.112 -10.757)" fill="none" stroke="#000" stroke-linecap="round" stroke-miterlimit="10" stroke-width="1"/>
    <path id="Path_1391" data-name="Path 1391" d="M253.8,158.844s40.9-7.865,60.034-5.767c0,0,11.8,13.37,16.254,22.021l-34.43,21.671s4.02,53.305-9.875,87.648H156.016s7.547-73.454,13.895-85.726c3.932-7.6,7.428-15.991,25.954-22.808s21.759-13.108,21.759-13.108Z" transform="translate(-17.116 -16.755)" fill="#9ec68a"/>
    <path id="Path_1392" data-name="Path 1392" d="M264.363,160.465s4.608-.566,5.781,6.589" transform="translate(-29.003 -17.603)" fill="none" stroke="#000" stroke-linecap="round" stroke-miterlimit="10" stroke-width="1"/>
    <path id="Path_1393" data-name="Path 1393" d="M224.714,171.023s-5.285,4.706-.97,11.986" transform="translate(-24.36 -18.762)" fill="none" stroke="#000" stroke-linecap="round" stroke-miterlimit="10" stroke-width="1"/>
    <line id="Line_408" data-name="Line 408" x2="8.389" y2="11.273" transform="translate(165.64 187.181)" fill="none" stroke="#000" stroke-linecap="round" stroke-miterlimit="10" stroke-width="1"/>
    <path id="Path_1394" data-name="Path 1394" d="M238.517,177.18h0c-9.073,0-11.535-12.686-11.535-21.759l.262-19.575H260.1v24.562c0,9.074-12.511,16.771-21.584,16.771" transform="translate(-24.902 -14.903)" fill="#ba6f4c"/>
    <path id="Path_1395" data-name="Path 1395" d="M257.034,135.846h-29.79l-.262,19.575c0,5.547.924,12.441,3.713,16.964,16.551-2.734,23.814-19.056,26.339-36.539" transform="translate(-24.902 -14.903)"/>
    <path id="Path_1396" data-name="Path 1396" d="M280.918,111.45l57.461,60.932s11.841-4.239,18.831-13.327-7.777-24.818-27.352-37.4S280.793,95.7,280.793,95.7s-.573,4.216.126,15.75" transform="translate(-30.781 -10.499)" fill="#ba6f4c"/>
    <path id="Path_1397" data-name="Path 1397" d="M293.635,226.54s-3.146,32.005-31.808,30.274" transform="translate(-28.724 -24.853)" fill="none" stroke="#000" stroke-linecap="round" stroke-miterlimit="10" stroke-width="1"/>
    <path id="Path_1398" data-name="Path 1398" d="M211.976,152.543a8.029,8.029,0,0,1,1.1,5.772c-.552,3.651-2.954,6.315-5.367,5.951s-3.92-3.619-3.368-7.27a8.179,8.179,0,0,1,2.569-5.044" transform="translate(-22.405 -16.67)" fill="none" stroke="#fff" stroke-linecap="round" stroke-miterlimit="10" stroke-width="1"/>
    <path id="Path_1399" data-name="Path 1399" d="M196.623,106.349s-.789,52.494,28.772,56.12c25.711,3.153,29.738-39.983,27.894-56.352s-9.128-24.979-29.231-24.667c-29.741.461-27.435,24.9-27.435,24.9" transform="translate(-21.566 -8.935)" fill="#ba6f4c"/>
    <path id="Path_1400" data-name="Path 1400" d="M249.691,115.514l.766,4.078s16.729,2.244,20.993-.409c0,0-9.483-25.57-15.991-33.293S239.7,70.948,219.28,73.83s-25.341,22.459-25.341,22.459-4.894,13.479,4.194,29.034c0,0,.093-17.817,4.02-23,0,0,18.813,21.149,47.538,13.2" transform="translate(-21.132 -8.029)"/>
    <path id="Path_1401" data-name="Path 1401" d="M263.916,136.534c-1.276,5.954-5.616,10.074-9.693,9.2s-6.348-6.409-5.071-12.363,5.615-10.074,9.693-9.2,6.348,6.409,5.071,12.363" transform="translate(-27.295 -13.61)" fill="#ba6f4c"/>
    <path id="Path_1402" data-name="Path 1402" d="M260.387,132.177s-3.9-3.348-5.627,3.278c0,0,2.3,2.442,1.023,4.534a2.9,2.9,0,0,0,3.133-1.744" transform="translate(-27.949 -14.408)" fill="none" stroke="#000" stroke-linecap="round" stroke-linejoin="round" stroke-width="1"/>
    <path id="Path_1403" data-name="Path 1403" d="M259.178,134.812a6.6,6.6,0,0,0-1.8-3" transform="translate(-28.236 -14.46)" fill="none" stroke="#000" stroke-linecap="round" stroke-linejoin="round" stroke-width="1"/>
    <path id="Path_1404" data-name="Path 1404" d="M231.087,139.54c.05,1.48-.629,2.7-1.515,2.732s-1.647-1.145-1.7-2.623.629-2.7,1.515-2.731,1.647,1.144,1.7,2.621" transform="translate(-24.999 -15.021)"/>
    <path id="Path_1405" data-name="Path 1405" d="M209.49,142.47c.05,1.478-.629,2.7-1.515,2.731s-1.646-1.144-1.7-2.623.629-2.7,1.515-2.731,1.647,1.144,1.7,2.622" transform="translate(-22.63 -15.342)"/>
    <path id="Path_1406" data-name="Path 1406" d="M206.65,134.29s-.684,3-3.421,2.171" transform="translate(-22.296 -14.733)" fill="none" stroke="#000" stroke-linecap="round" stroke-miterlimit="10" stroke-width="1"/>
    <path id="Path_1407" data-name="Path 1407" d="M230.582,131.708s-3.988,1.309-6.305-1.323" transform="translate(-24.605 -14.304)" fill="none" stroke="#000" stroke-linecap="round" stroke-miterlimit="10" stroke-width="1"/>
    <path id="Path_1408" data-name="Path 1408" d="M213.782,148.014s-.678,2.562.641,2.943,3.079.889,4.735-.174,3.329-.555,1.817-2.769" transform="translate(-23.434 -16.238)" fill="none" stroke="#000" stroke-linecap="round" stroke-miterlimit="10" stroke-width="1"/>
    <path id="Path_1409" data-name="Path 1409" d="M252.911,117.716c-33.556,15.73-49.985-11.317-49.985-11.317s-1.136,1.66,6.466,11.885" transform="translate(-22.256 -11.673)" fill="none" stroke="#000" stroke-linecap="round" stroke-miterlimit="10" stroke-width="1"/>
    <path id="Path_1410" data-name="Path 1410" d="M263.068,143.669a7.569,7.569,0,0,1,2.824,4.765c.681,3.413-.594,6.545-2.849,7s-4.636-1.951-5.318-5.364a7.711,7.711,0,0,1,.661-5.3" transform="translate(-28.254 -15.762)" fill="none" stroke="#fff" stroke-linecap="round" stroke-miterlimit="10" stroke-width="1"/>
    <path id="Path_1411" data-name="Path 1411" d="M234.343,162.669s.59-3.364,3.539-3.364" transform="translate(-25.709 -17.477)" fill="none" stroke="#000" stroke-linecap="round" stroke-miterlimit="10" stroke-width="1"/>
    <path id="Path_1412" data-name="Path 1412" d="M318.354,152.728s-2.622,29.536,24.163,25.91Z" transform="translate(-34.918 -16.755)" fill="#ba6f4c"/>
    <path id="Path_1413" data-name="Path 1413" d="M318.363,152.728s8.039,11.1,16.429,12.671" transform="translate(-34.927 -16.755)" fill="none" stroke="#000" stroke-linecap="round" stroke-miterlimit="10" stroke-width="1"/>
    <path id="Path_1414" data-name="Path 1414" d="M298.637,288.956s11.441-37.734,10.224-88.085c0,0-.575-.293-2.2-1.2a35.232,35.232,0,0,1-9.595-7.976" transform="translate(-32.59 -21.03)" fill="none" stroke="#000" stroke-linecap="round" stroke-miterlimit="10" stroke-width="1"/>
    <path id="Path_1415" data-name="Path 1415" d="M335.133,182.469s-19.837,14.768-24.818,17.39" transform="translate(-34.044 -20.018)" fill="none" stroke="#000" stroke-linecap="round" stroke-miterlimit="10" stroke-width="1"/>
    <path id="Path_1416" data-name="Path 1416" d="M265.01,161.556s5.012,21.587-21.749,26.6c-23.019,4.313-23.123-16.655-23.123-16.655" transform="translate(-24.151 -17.724)" fill="none" stroke="#000" stroke-linecap="round" stroke-miterlimit="10" stroke-width="1"/>
    <path id="Path_1417" data-name="Path 1417" d="M254.465,177.766s3.112,1.5,2.988,8.53" transform="translate(-27.917 -19.502)" fill="none" stroke="#000" stroke-linecap="round" stroke-miterlimit="10" stroke-width="1"/>
    <path id="Path_1418" data-name="Path 1418" d="M260.368,172.68s3.234,2.063,3.112,9.459" transform="translate(-28.564 -18.944)" fill="none" stroke="#000" stroke-linecap="round" stroke-miterlimit="10" stroke-width="1"/>
    <path id="Path_1419" data-name="Path 1419" d="M264.363,165.96s3.615,2.09,3.477,10.187" transform="translate(-29.003 -18.207)" fill="none" stroke="#000" stroke-linecap="round" stroke-miterlimit="10" stroke-width="1"/>
    <path id="Path_1420" data-name="Path 1420" d="M228.95,173.838s-3.962,5.174-.727,13.178" transform="translate(-24.898 -19.071)" fill="none" stroke="#000" stroke-linecap="round" stroke-miterlimit="10" stroke-width="1"/>
    <path id="Path_1421" data-name="Path 1421" d="M232.917,179.174s-2.021,4.45,1.722,10.935" transform="translate(-25.493 -19.657)" fill="none" stroke="#000" stroke-linecap="round" stroke-miterlimit="10" stroke-width="1"/>
    <path id="Path_1422" data-name="Path 1422" d="M240.041,182.738s-.231,5.157,1.076,8.126" transform="translate(-26.333 -20.048)" fill="none" stroke="#000" stroke-linecap="round" stroke-miterlimit="10" stroke-width="1"/>
    <path id="Path_1423" data-name="Path 1423" d="M247.926,181.376s1.774,2.833,1.4,8.126" transform="translate(-27.199 -19.898)" fill="none" stroke="#000" stroke-linecap="round" stroke-miterlimit="10" stroke-width="1"/>
    <path id="Path_1424" data-name="Path 1424" d="M259.248,184.577s-9.359,12.411-25.851,12.411" transform="translate(-25.605 -20.249)" fill="none" stroke="#000" stroke-linecap="round" stroke-miterlimit="10" stroke-width="1"/>
    <path id="Path_1425" data-name="Path 1425" d="M305.944,324.978H0L39.057,300.6H345Z" transform="translate(0 -32.978)" fill="#c6d3f7"/>
    <path id="Path_1426" data-name="Path 1426" d="M87.884,288.459a22.127,22.127,0,0,0-12.431-3.614c-6.058-.055-14.327,1.18-17.058,1.495-1.682.193-1.709-2.379-6.8,4.348-2.014,2.658-2.548,3.331-2.815,4.248s.472,11.373,3.048,12.192c.08.025.145-.014.223-.021a8.084,8.084,0,0,0,1.452,3.018c.407.52,2.772,1.59,3.515-2.341,0,0,.579,3.193,2.362,4.326,1.851,1.177,2.688-1.007,2.905-2.762.237,1.521,1.384,4.062,2.97,3.491,3.11-1.119,1.557-10.239,1.557-10.239l3.648-6.583,5.177,1.219s10.8,4.772,14.971-1.5c1.913-2.874-.042-5.393-2.721-7.28" transform="translate(-5.346 -31.249)" fill="#ba6f4c"/>
    <path id="Path_1427" data-name="Path 1427" d="M56.739,289.241,51.616,296.6l1.158,10.553" transform="translate(-5.663 -31.732)" fill="none" stroke="#000" stroke-linecap="round" stroke-miterlimit="10" stroke-width="1"/>
    <path id="Path_1428" data-name="Path 1428" d="M61.249,290.952,57.2,299.22l.744,9.235" transform="translate(-6.275 -31.92)" fill="none" stroke="#000" stroke-linecap="round" stroke-miterlimit="10" stroke-width="1"/>
    <path id="Path_1429" data-name="Path 1429" d="M67.49,292.685l-3.854,7.824.271,8.387" transform="translate(-6.981 -32.11)" fill="none" stroke="#000" stroke-linecap="round" stroke-miterlimit="10" stroke-width="1"/>
    <path id="Path_1430" data-name="Path 1430" d="M84.379,298.31s-5.807,6.072-4.171,8.616,15.672-9.166,12.836-10.571c-4.153-2.059-8.665,1.955-8.665,1.955" transform="translate(-8.768 -32.448)" fill="#ba6f4c"/>
    <path id="Path_1431" data-name="Path 1431" d="M81.607,295.862A3.49,3.49,0,0,1,83,300.08" transform="translate(-8.953 -32.458)" fill="none" stroke="#000" stroke-linecap="round" stroke-miterlimit="10" stroke-width="1"/>
    <path id="Path_1432" data-name="Path 1432" d="M231.988,303.15l27.741.622a1.524,1.524,0,0,1,1.49,1.523v2.243a1.526,1.526,0,0,1-.9,1.391l-21.254,9.557-6.133.263Z" transform="translate(-25.451 -33.258)" fill="#8796ff"/>
    <path id="Path_1433" data-name="Path 1433" d="M260.435,305.342,239.182,314.9l-6.134.262v3.758l6.134-.263,21.253-9.557a1.525,1.525,0,0,0,.9-1.391v-2.243a1.519,1.519,0,0,0-.21-.761,1.514,1.514,0,0,1-.689.637" transform="translate(-25.567 -33.428)" fill="#e1e7f7"/>
    <path id="Path_1434" data-name="Path 1434" d="M217.684,309.622H90.221a4.257,4.257,0,0,1-4.154-3.545L69.145,226.125c-.484-2.67,3.752-6.161,6.4-6.161H203a4.257,4.257,0,0,1,4.154,3.545l14.68,80.978a4.307,4.307,0,0,1-4.154,5.134" transform="translate(-7.582 -24.132)" fill="#fff"/>
    <path id="Path_1435" data-name="Path 1435" d="M197.079,225.6l6.432-5.59a4.135,4.135,0,0,0-.507-.046H75.541c-2.643,0-6.879,3.492-6.4,6.161l2.234,10.552L121.4,238.14Z" transform="translate(-7.582 -24.132)" fill="#8796ff"/>
    <path id="Path_1436" data-name="Path 1436" d="M238.352,305.127,223.969,225.79a7.616,7.616,0,0,0-3.824,4.513c-1,3.111-.316,55.546.06,79.958H234.2a4.309,4.309,0,0,0,4.155-5.134" transform="translate(-24.094 -24.771)" fill="#e1e7f7"/>
    <path id="Path_1437" data-name="Path 1437" d="M215.011,309.913H87.548a4.225,4.225,0,0,1-4.154-3.453L68.713,227.613a4.226,4.226,0,0,1,4.155-5H200.331a4.225,4.225,0,0,1,4.154,3.453l14.68,78.847a4.225,4.225,0,0,1-4.154,5" transform="translate(-7.53 -24.422)" fill="#545fac"/>
    <path id="Path_1438" data-name="Path 1438" d="M154.35,270.8c3.3,6.927,1.789,14.538-3.377,17s-12.031-1.157-15.333-8.084-1.79-14.538,3.377-17,12.031,1.156,15.333,8.084" transform="translate(-14.689 -28.737)" fill="#7584f1"/>
    <rect id="Rectangle_1218" data-name="Rectangle 1218" width="305.944" height="6.335" transform="translate(0 292.001)" fill="#7584f1"/>
    <path id="Path_1439" data-name="Path 1439" d="M343.644,331.314,382.7,306.933V300.6l-39.056,24.381Z" transform="translate(-37.7 -32.978)" fill="#8aa5eb"/>
    <path id="Path_1440" data-name="Path 1440" d="M214.689,180.173s7.276,27.893,22.8,28.378" transform="translate(-23.553 -19.766)" fill="none" stroke="#000" stroke-linecap="round" stroke-miterlimit="10" stroke-width="1"/>
    <path id="Path_1441" data-name="Path 1441" d="M359.105,252.749s-2.65-1.013.735-7.624c3.217-6.279,6.729-12.165,14.534-16.98,0,0-.739,12.958-5.565,17.943a27.578,27.578,0,0,1-9.7,6.66" transform="translate(-39.288 -25.029)" fill="#7e9e6e"/>
    <path id="Path_1442" data-name="Path 1442" d="M379.651,256.568s-8.087,5.424-23.015,5.992c0,0,.653-1.976,6.919-5.1s17.559-2.9,16.1-.887" transform="translate(-39.126 -27.983)" fill="#7e9e6e"/>
    <path id="Path_1443" data-name="Path 1443" d="M379.37,256.731s-10.864-1.763-23.015,5.992a8.065,8.065,0,0,0-2.279,3.346" transform="translate(-38.845 -28.146)" fill="none" stroke="#000" stroke-linecap="round" stroke-miterlimit="10" stroke-width="1"/>
    <path id="Path_1444" data-name="Path 1444" d="M373.183,269.133a32.322,32.322,0,0,1-22.972,10.716,17.583,17.583,0,0,1,8.254-9.758c6.267-3.129,16.182-2.975,14.718-.958" transform="translate(-38.421 -29.365)" fill="#7e9e6e"/>
    <path id="Path_1445" data-name="Path 1445" d="M372.873,269.31s-10.351-1.026-22.972,10.716a12.685,12.685,0,0,0-2.518,3.891" transform="translate(-38.11 -29.543)" fill="none" stroke="#000" stroke-linecap="round" stroke-miterlimit="10" stroke-width="1"/>
    <path id="Path_1446" data-name="Path 1446" d="M349.6,265.746s-1.856,1.644-5.923-.5-6.522-9.631-9.827-9.595c0,0,8.249-.407,15.75,10.1" transform="translate(-36.626 -28.046)" fill="#7e9e6e"/>
    <path id="Path_1447" data-name="Path 1447" d="M344.47,288.476a194.625,194.625,0,0,1,13.138-35.726s1.485-3.447,6.977-13.054,8.292-11.55,8.292-11.55" transform="translate(-37.791 -25.029)" fill="none" stroke="#000" stroke-linecap="round" stroke-miterlimit="10" stroke-width="1"/>
    <path id="Path_1448" data-name="Path 1448" d="M334.957,255.7s7.981.546,14.763,10.051c1.643,2.3.463,5.137-.52,7.323" transform="translate(-36.747 -28.052)" fill="none" stroke="#000" stroke-linecap="round" stroke-miterlimit="10" stroke-width="1"/>
    <path id="Path_1449" data-name="Path 1449" d="M333.154,289.739l3.875,21.366c0,1.309,4.135,2.371,9.235,2.371s9.235-1.062,9.235-2.371l3.875-21.366Z" transform="translate(-36.549 -31.786)" fill="#545fac"/>
    <path id="Path_1450" data-name="Path 1450" d="M359.376,289.447c0,1.31-5.871,2.371-13.111,2.371s-13.11-1.061-13.11-2.371,5.87-2.371,13.11-2.371,13.111,1.061,13.111,2.371" transform="translate(-36.549 -31.494)"/>
    <path id="Path_1451" data-name="Path 1451" d="M302.254.012a30.434,30.434,0,0,0-20.5,52.12,3.8,3.8,0,0,1,1.091,3.345l-2.254,13.34,13.87-8.081a3.735,3.735,0,0,1,2.617-.449A30.445,30.445,0,1,0,302.254.012" transform="translate(-29.913 0)" fill="#d3ddf7"/>
    <path id="Path_1452" data-name="Path 1452" d="M305.758,45.793a1.2,1.2,0,0,1-.969-.4,1.683,1.683,0,0,1-.336-1.116,1.632,1.632,0,0,1,.357-1.094,1.347,1.347,0,0,1,1.936-.021,1.758,1.758,0,0,1,.316,1.116,1.724,1.724,0,0,1-.337,1.074,1.146,1.146,0,0,1-.969.442M305.5,35.31q-.048-1.3-.1-2.674t-.071-2.737q-.025-1.367.024-2.8V15.985h1.056l.049,11.115q0,1.43-.025,2.8t-.071,2.737q-.049,1.369-.1,2.674Z" transform="translate(-33.401 -1.754)"/>
    <path id="Path_1453" data-name="Path 1453" d="M48.754,113.165a6.452,6.452,0,0,1-4.136-1.491L41.4,108.993a6.146,6.146,0,0,0-3.947-1.479l-15.973.025a2.625,2.625,0,0,0-2.621,2.629l.005,3.043L18.946,168a4.528,4.528,0,0,0,4.536,4.522l79.627-.124a3.524,3.524,0,0,0,3.518-3.528l-.082-52.269a3.523,3.523,0,0,0-3.528-3.517Z" transform="translate(-2.069 -11.795)" fill="#d3ddf7"/>
    <path id="Path_1454" data-name="Path 1454" d="M104.613,128.177H88.468a2.24,2.24,0,1,1,0-4.48h16.145a2.24,2.24,0,0,1,0,4.48Z" transform="translate(-9.46 -13.57)" fill="none" stroke="#000" stroke-linecap="round" stroke-miterlimit="10" stroke-width="1"/>
    <line id="Line_409" data-name="Line 409" x2="59.732" transform="translate(41.649 103.365)" fill="none" stroke="#000" stroke-linecap="round" stroke-miterlimit="10" stroke-width="1"/>
    <line id="Line_410" data-name="Line 410" x1="19.411" y2="19.411" transform="translate(51.4 124.304)" fill="none" stroke="#000" stroke-linecap="round" stroke-linejoin="round" stroke-width="1"/>
    <line id="Line_411" data-name="Line 411" x1="19.411" y1="19.411" transform="translate(51.4 124.304)" fill="none" stroke="#000" stroke-linecap="round" stroke-linejoin="round" stroke-width="1"/>
    <path id="Path_1455" data-name="Path 1455" d="M261.522,163.435c0,9.073-12.511,16.771-21.584,16.771" transform="translate(-26.323 -17.93)" fill="none" stroke="#000" stroke-linecap="round" stroke-miterlimit="10" stroke-width="1"/>
  </g>
</svg>
