<?xml version="1.0" encoding="UTF-8"?>
<svg id="Layer_1" xmlns="http://www.w3.org/2000/svg" version="1.1" viewBox="0 0 500 500">
  <!-- Generator: Adobe Illustrator 29.7.1, SVG Export Plug-In . SVG Version: 2.1.1 Build 8)  -->
  <defs>
    <style>
      .st0 {
        fill: currentColor;
      }

      .st1 {
        opacity: .5;
      }
    </style>
  </defs>
  <g id="material-symbols_redo" class="st1">
    <path id="Path_1503" class="st0" d="M185.36,481.29c-47.48.91-93.49-16.49-128.47-48.6C21.99,402.22,2.36,357.88,3.29,311.56c-.9-46.32,18.73-90.66,53.63-121.13,34.97-32.11,80.97-49.51,128.44-48.6h194.42l-80.24-80.24,43.2-43.2,154.3,154.3-154.3,154.3-43.2-43.2,80.24-80.24h-194.42c-31.01-.51-61.11,10.48-84.5,30.86-42.61,35.9-48.05,99.54-12.15,142.15,3.7,4.39,7.76,8.45,12.15,12.15,23.38,20.38,53.48,31.37,84.5,30.86h219.11v61.72h-219.11Z"/>
  </g>
</svg>