<?xml version="1.0" encoding="UTF-8"?>
<svg id="Layer_1" xmlns="http://www.w3.org/2000/svg" version="1.1" viewBox="0 0 16 16">
  <!-- Generator: Adobe Illustrator 29.7.1, SVG Export Plug-In . SVG Version: 2.1.1 Build 8)  -->
  <defs>
    <style>
      .st0 {
        fill: #2f2f4b;
      }
    </style>
  </defs>
  <path class="st0" d="M2.61,7.95l4.64,1.46-4.64-1.46ZM7.8,10.39c.07,0,.14,0,.22,0,.43.02,1.03.09,1.7.27,1.33.37,2.9,1.2,3.94,3.08.13.24.44.33.68.19.18-.1.28-.3.25-.5-.46-3.71-1.89-5.66-3.46-6.66-1.24-.79-2.53-.94-3.34-.97v-.66c0-.63-.51-1.14-1.14-1.14-.22,0-.44.06-.62.18l-3.99,2.94c-.54.34-.7,1.04-.37,1.58.09.15.22.27.37.37l3.99,2.94c.53.34,1.24.19,1.58-.34.12-.19.18-.4.18-.62v-.67Z"/>
</svg>