<?xml version="1.0" encoding="UTF-8"?>
<svg id="Layer_1" xmlns="http://www.w3.org/2000/svg" version="1.1" viewBox="0 0 458.5 525">
  <!-- Generator: Adobe Illustrator 29.7.1, SVG Export Plug-In . SVG Version: 2.1.1 Build 8)  -->
  <defs>
    <style>
      .st0 {
        fill-rule: evenodd;
        stroke-miterlimit: 10;
        stroke-width: 20px;
      }

      .st0, .st1 {
        stroke: #000;
      }

      .st1 {
        fill: none;
        stroke-linecap: round;
        stroke-linejoin: round;
        stroke-width: 32px;
      }
    </style>
  </defs>
  <path d="M454.16,362.19l-31.96-137.01c-6.21-29.89-30.01-47.73-63.7-47.73h-76.98c.03,9.59.13,19.29.4,28.88h76.58c18.61,0,28.87,7.72,32.27,24.29.02.12.05.23.08.35l31.66,135.71v99.53c-.05,15.9-14.43,28.88-32,28.92H70.55c-17.62-.05-32-13.02-32.05-28.88v-99.57l31.66-135.71c.02-.08.04-.17.06-.25,3.55-16.64,13.81-24.39,32.29-24.39h98v-28.88h-98c-16.8,0-30.96,4.23-42.1,12.58-11.11,8.33-18.37,20.14-21.59,35.1L6.84,362.19c-.23.98-.34,1.98-.34,2.97v101.12c.1,31.73,28.79,57.62,64,57.72h320.05c35.16-.09,63.85-25.98,63.95-57.76v-101.08c0-1-.12-2-.34-2.97Z"/>
  <path class="st1" d="M27.53,348h139.99M291.96,348h139.99M167.53,348c0,35.35,27.86,64,62.22,64s62.22-28.65,62.22-64M105.31,278h248.88"/>
  <path class="st0" d="M241.03,230.72c5.86,0,10.61-4.75,10.61-10.61V51.23s66.74,66.76,66.74,66.76c4.15,4.15,10.87,4.15,15.02,0s4.15-10.87,0-15.02L248.54,18.12c-4.14-4.15-10.85-4.16-15-.02,0,0-.01.01-.02.02l-84.85,84.85c-4.15,4.15-4.15,10.87,0,15.02s10.87,4.15,15.02,0l66.74-66.76v168.89c0,5.86,4.75,10.61,10.61,10.61"/>
</svg>