<?xml version="1.0" encoding="UTF-8"?>
<svg id="Layer_1" xmlns="http://www.w3.org/2000/svg" version="1.1" viewBox="0 0 500 500">
  <!-- Generator: Adobe Illustrator 29.7.1, SVG Export Plug-In . SVG Version: 2.1.1 Build 8)  -->
  <defs>
    <style>
      .st0 {
        fill: currentColor;
      }

      .st1 {
        opacity: .5;
      }
    </style>
  </defs>
  <g id="material-symbols_redo-1" class="st1">
    <path id="Path_1502" class="st0" d="M314.75,481.29c47.45.91,93.43-16.48,128.39-48.58,34.88-30.44,54.49-74.77,53.57-121.05.9-46.29-18.72-90.61-53.6-121.05-34.95-32.09-80.92-49.48-128.36-48.57H120.45l80.19-80.19-43.18-43.18L3.25,172.88l154.21,154.21,43.18-43.18-80.19-80.19h194.3c30.99-.51,61.07,10.48,84.44,30.84,42.58,35.88,48.02,99.48,12.14,142.06-3.69,4.39-7.76,8.45-12.14,12.14-23.37,20.37-53.45,31.35-84.44,30.84H95.78v61.68h218.97Z"/>
  </g>
</svg>