<?xml version="1.0" encoding="UTF-8"?>
<svg id="Layer_1" xmlns="http://www.w3.org/2000/svg" xmlns:xlink="http://www.w3.org/1999/xlink"
    version="1.1" viewBox="0 0 1024 1024">
    <!-- Generator: Adobe Illustrator 29.0.1, SVG Export Plug-In . SVG Version: 2.1.0 Build 192)  -->
    <defs>
        <style>
            .st0 {
            fill: #827F85;
            }

            .st1 {
            fill: #fff;
            }
        </style>
    </defs>
    <path class="st0"
        d="M222.7,273.8s6.3,19.7,1.6,70.3c-108.9,34.8-146.4,183.4-29.6,298.5,89.8,71.5,223.6,52.8,248.8,45.2,60.9-11.1,95.8-57.9,161.1-131.7,30.6,6,16.5,74.2,16.5,74.2,0,0-63.2,75.2-103.1,95.8-33.8,13.1-72.3,23.8-126.1,23.9-66.1-1.3-177.3-10.7-239.2-58.2C29.3,578,12.5,367.5,222.7,273.8ZM368.8,531.8c-40.6-41.6-47.1-63.9-51.8-110.5-2.7-19.5-.9-90.9,2.2-132.6,3.1-53.2,47.4-147.6,159.6-168,111.7-10.6,148.5,61.2,187.2,99.6,18.6.9,19,6.7,66.9,4.5-29.7-68.7-86.9-122.4-121-137.9s-142.3-52.8-239,13.3-107.3,145-112.6,167.2-3.1,121.9-2.7,156.1,2.2,59,21.3,91.8c19.1,32.8,71.8,82.9,100.2,108.2,64.3,9.8,61.9-13.4,67.7-21.1,0,0-62.9-56.8-78.1-70.5ZM560.7,318.6c60.4-5,126.4-9.3,181.6,3.8,47.7,14.5,107.5,59.4,129.5,135.6,26.6,92.4-73.3,195-91.5,199.8.7,9.3-3.5,60.9-.2,74.8,252.1-141.8,121.7-367.3,107.6-383.8-27.7-33.4-61-82.5-198-87.8-117.8-5.1-168.5-2.4-218.6,35.7-39.7,33.7-46.5,43.6-91.3,90-3.1,49.4,10.3,52.7,23.4,63.8,43.8-37.7,97.1-124,157.6-132ZM676.1,550.1c5.2,23.3,13.9,91.6.6,182.6-3.3,32-55.5,138-143.2,151.9-102.9,17.6-170.6-70.8-185.5-102.3-4.8-.8-47.3-1.5-77.3-.2,24.3,61,54.5,87.6,79.5,110.2,31.9,31.3,126.7,83.5,242.4,34.6,115.7-48.9,144.7-134.7,149.6-182.6,5-47.9,9-95.8,5-160.6s-14-77.8-25.9-93.8-53.3-70.9-100.1-106.7c-34.3-14.3-74.3,10.3-81.5,18.8,21.9,20.1,95.2,47.7,136.5,148.1ZM495.7,458c-28.8,0-52.2,23.4-52.2,52.2s23.4,52.2,52.2,52.2,52.2-23.4,52.2-52.2-23.4-52.2-52.2-52.2ZM465.1,181.8c-21.2,0-38.4,17.2-38.4,38.4s17.2,38.4,38.4,38.4,38.4-17.2,38.4-38.4-17.2-38.4-38.4-38.4ZM533.4,750.5c-21.2,0-38.4,17.2-38.4,38.4s17.2,38.4,38.4,38.4,38.4-17.2,38.4-38.4-17.2-38.4-38.4-38.4ZM228.1,512.1c-18.4,0-33.4,14.9-33.4,33.4s14.9,33.4,33.4,33.4,33.4-14.9,33.4-33.4-14.9-33.4-33.4-33.4ZM782.1,424.6c-18.4,0-33.4,14.9-33.4,33.4s14.9,33.4,33.4,33.4,33.4-14.9,33.4-33.4-14.9-33.4-33.4-33.4Z" />
    <circle class="st1" cx="227.2" cy="545.4" r="15.5" />
    <circle class="st1" cx="782.1" cy="458" r="15.5" />
</svg>