<?xml version="1.0" encoding="UTF-8"?>
<svg id="Layer_1" xmlns="http://www.w3.org/2000/svg" xmlns:xlink="http://www.w3.org/1999/xlink" version="1.1" viewBox="0 0 512 512">
  <!-- Generator: Adobe Illustrator 29.6.0, SVG Export Plug-In . SVG Version: 2.1.1 Build 207)  -->
  <defs>
    <style>
      .st0 {
        fill: url(#linear-gradient);
        stroke: #000;
        stroke-miterlimit: 10;
        stroke-width: 10px;
      }
    </style>
    <linearGradient id="linear-gradient" x1="130.8" y1="95.7" x2="335.1" y2="449.6" gradientUnits="userSpaceOnUse">
      <stop offset="0" stop-color="#006c67"/>
      <stop offset="1" stop-color="#531cb3"/>
    </linearGradient>
  </defs>
  <path class="st0" d="M440.1,341.3c-1.7-2-3.3-4-4.9-5.9-22-26.6-35.3-42.7-35.3-118s-9.3-71-27.7-95c-13.6-17.7-31.9-31.2-56-41.1-.3-.2-.6-.4-.8-.7-8.7-29.1-32.5-48.6-59.3-48.6s-50.6,19.5-59.3,48.6c-.2.3-.5.5-.8.7-56.4,23.2-83.8,67.7-83.8,136.1s-13.3,91.4-35.3,118c-1.6,1.9-3.2,3.9-4.9,5.9-8.8,10.6-10.6,25.2-4.7,37.6,6.2,13,19.3,21.1,34.3,21.1h308.9c14.9,0,28-8.1,34.2-21,5.9-12.4,4.1-27.1-4.6-37.7h0ZM256,480c29.4,0,56.5-16.2,70.4-42.1,1-2,.3-4.4-1.7-5.4-.6-.3-1.2-.5-1.9-.5h-133.8c-2.2,0-4,1.8-4,4,0,.7.2,1.3.5,1.9,13.9,25.9,41,42.1,70.4,42.1Z"/>
</svg>