<?xml version="1.0" encoding="UTF-8"?>
<svg id="Layer_1" xmlns="http://www.w3.org/2000/svg" xmlns:xlink="http://www.w3.org/1999/xlink" version="1.1" viewBox="0 0 512 512">
  <!-- Generator: Adobe Illustrator 29.6.0, SVG Export Plug-In . SVG Version: 2.1.1 Build 207)  -->
  <defs>
    <style>
      .st0 {
        fill: url(#linear-gradient);
        stroke: #000;
        stroke-miterlimit: 10;
        stroke-width: 10px;
      }
    </style>
    <linearGradient id="linear-gradient" x1="152" y1="75.9" x2="360" y2="436.1" gradientUnits="userSpaceOnUse">
      <stop offset="0" stop-color="#006c67"/>
      <stop offset="1" stop-color="#531cb3"/>
    </linearGradient>
  </defs>
  <path class="st0" d="M256,48c-114.7,0-208,93.3-208,208s93.3,208,208,208,208-93.3,208-208S370.7,48,256,48ZM256,374.9c-11,0-20-9-20-20s9-20,20-20,20,9,20,20-9,20-20,20ZM277.7,163.8l-5.7,122c0,8.8-7.2,16-16,16s-16-7.2-16-16l-5.7-121.9h0c-.5-12,8.8-22.2,20.8-22.7s22.1,8.8,22.7,20.8c0,.6,0,1.2,0,1.9h0Z"/>
</svg>