<?xml version="1.0" encoding="UTF-8"?>
<svg id="Layer_1" xmlns="http://www.w3.org/2000/svg" xmlns:xlink="http://www.w3.org/1999/xlink" version="1.1" viewBox="0 0 512 512">
  <!-- Generator: Adobe Illustrator 29.6.1, SVG Export Plug-In . SVG Version: 2.1.1 Build 9)  -->
  <defs>
    <style>
      .st0 {
        fill: url(#linear-gradient);
        stroke: #000;
        stroke-miterlimit: 10;
        stroke-width: 7px;
      }
    </style>
    <linearGradient id="linear-gradient" x1="144.5" y1="256.3" x2="367.5" y2="256.3" gradientUnits="userSpaceOnUse">
      <stop offset="0" stop-color="#531cb3"/>
      <stop offset="1" stop-color="#006c67"/>
    </linearGradient>
  </defs>
  <path class="st0" d="M256,450c-.5,0-1.1,0-1.6,0-29.8-.4-57.6-12.4-78.4-33.8-20.7-21.3-31.9-49.5-31.5-79.2v-189.6c0-.6,0-1.3,0-1.9.3-22.4,9.3-43.4,25.3-59s37.2-24.1,59.6-23.9c46.2.6,83.4,38.6,82.9,84.9v188.7c-.6,30.5-24.9,54.7-55.3,55.2-15,.2-29.2-5.4-39.9-15.8-10.8-10.4-16.8-24.4-17-39.4v-.3s0-143.8,0-143.8c0-8.8,7.2-16,16-16s16,7.2,16,16v143.7c.1,6.4,2.7,12.4,7.3,16.8,4.6,4.5,10.7,6.9,17.1,6.8,13-.2,23.4-10.6,23.7-23.6v-188.6c.5-28.6-22.5-52.2-51.2-52.6-13.9-.2-27,5.1-36.9,14.8-9.9,9.7-15.5,22.7-15.7,36.5,0,.4,0,.8,0,1.3v.2s0,190.1,0,190.1c-.3,21.2,7.7,41.3,22.5,56.6,14.8,15.2,34.6,23.8,55.9,24.1.4,0,.8,0,1.2,0,43.3,0,78.9-34.9,79.5-78.4,0-.8,0-1.5,0-2.3v-.2s0-177.4,0-177.4c0-8.8,7.2-16,16-16s16,7.2,16,16v177.3c0,1,0,2.1,0,3.1-.9,60.9-50.7,109.9-111.5,109.9Z"/>
</svg>