<?xml version="1.0" encoding="UTF-8"?>
<svg id="Layer_1" xmlns="http://www.w3.org/2000/svg" xmlns:xlink="http://www.w3.org/1999/xlink" version="1.1" viewBox="0 0 512 512">
  <!-- Generator: Adobe Illustrator 29.6.1, SVG Export Plug-In . SVG Version: 2.1.1 Build 9)  -->
  <defs>
    <style>
      .st0 {
        fill: url(#linear-gradient);
        stroke: #000;
        stroke-miterlimit: 10;
        stroke-width: 6px;
      }
    </style>
    <linearGradient id="linear-gradient" x1="256" y1="480" x2="256" y2="32" gradientUnits="userSpaceOnUse">
      <stop offset="0" stop-color="#531cb3"/>
      <stop offset="1" stop-color="#006c67"/>
    </linearGradient>
  </defs>
  <path class="st0" d="M400,480c-3.8,0-7.6-1.4-10.6-4l-133.4-118.6-133.4,118.6c-4.7,4.2-11.4,5.2-17.2,2.6-5.7-2.6-9.4-8.3-9.4-14.6V96c0-35.3,28.7-64,64-64h192c35.3,0,64,28.7,64,64v368c0,6.3-3.7,12-9.4,14.6-2.1.9-4.3,1.4-6.6,1.4ZM256,320c3.8,0,7.6,1.3,10.6,4l117.4,104.3V96c0-17.6-14.4-32-32-32h-192c-17.6,0-32,14.4-32,32v332.4l117.4-104.3c3-2.7,6.8-4,10.6-4Z"/>
</svg>