<?xml version="1.0" encoding="UTF-8"?>
<svg id="Layer_1" xmlns="http://www.w3.org/2000/svg" xmlns:xlink="http://www.w3.org/1999/xlink" version="1.1" viewBox="0 0 512 512">
  <!-- Generator: Adobe Illustrator 29.6.0, SVG Export Plug-In . SVG Version: 2.1.1 Build 207)  -->
  <defs>
    <style>
      .st0 {
        fill: url(#linear-gradient);
        stroke: #000;
        stroke-miterlimit: 10;
        stroke-width: 10px;
      }
    </style>
    <linearGradient id="linear-gradient" x1="119" y1="34.7" x2="390.4" y2="504.7" gradientUnits="userSpaceOnUse">
      <stop offset="0" stop-color="#005c56"/>
      <stop offset="1" stop-color="#531cb3"/>
    </linearGradient>
  </defs>
  <path class="st0" d="M480,128c0-35.3-28.7-64-64-64h-16v-15.5c0-8.6-6.6-16-15.2-16.4-8.8-.4-16.3,6.4-16.8,15.2,0,.3,0,.5,0,.8v16h-224v-15.5c0-8.6-6.6-16-15.2-16.4-8.8-.4-16.3,6.4-16.8,15.2,0,.3,0,.5,0,.8v16h-16c-35.3,0-64,28.7-64,64v12c0,2.2,1.8,4,4,4h440c2.2,0,4-1.8,4-4v-12ZM32,416c0,35.3,28.7,64,64,64h320c35.3,0,64-28.7,64-64v-237c0-1.7-1.3-3-3-3H35c-1.7,0-3,1.3-3,3v237ZM376,208c13.3,0,24,10.7,24,24s-10.7,24-24,24-24-10.7-24-24h0c0-13.3,10.7-24,24-24ZM376,288c13.3,0,24,10.7,24,24s-10.7,24-24,24-24-10.7-24-24,10.7-24,24-24ZM296,208c13.3,0,24,10.7,24,24s-10.7,24-24,24-24-10.7-24-24h0c0-13.3,10.7-24,24-24ZM296,288c13.3,0,24,10.7,24,24s-10.7,24-24,24-24-10.7-24-24,10.7-24,24-24ZM296,368c13.3,0,24,10.7,24,24s-10.7,24-24,24-24-10.7-24-24,10.7-24,24-24ZM216,288c13.3,0,24,10.7,24,24s-10.7,24-24,24-24-10.7-24-24,10.7-24,24-24ZM216,368c13.3,0,24,10.7,24,24s-10.7,24-24,24-24-10.7-24-24,10.7-24,24-24ZM136,288c13.3,0,24,10.7,24,24s-10.7,24-24,24-24-10.7-24-24,10.7-24,24-24ZM136,368c13.3,0,24,10.7,24,24s-10.7,24-24,24-24-10.7-24-24,10.7-24,24-24Z"/>
</svg>