<?xml version="1.0" encoding="UTF-8"?>
<svg id="Layer_1" xmlns="http://www.w3.org/2000/svg" xmlns:xlink="http://www.w3.org/1999/xlink" version="1.1" viewBox="0 0 512 512">
  <!-- Generator: Adobe Illustrator 29.6.0, SVG Export Plug-In . SVG Version: 2.1.1 Build 207)  -->
  <defs>
    <style>
      .st0 {
        fill: #fff;
      }

      .st1 {
        fill: url(#linear-gradient);
        stroke: #000;
        stroke-linecap: round;
        stroke-miterlimit: 10;
        stroke-width: 10px;
      }
    </style>
    <linearGradient id="linear-gradient" x1="256" y1="464" x2="256" y2="48" gradientUnits="userSpaceOnUse">
      <stop offset="0" stop-color="#531cb3"/>
      <stop offset="1" stop-color="#006c67"/>
    </linearGradient>
  </defs>
  <path class="st1" d="M87.5,380c1.2-4.4-1.4-10.5-3.9-14.9-.8-1.3-1.6-2.6-2.5-3.8-21.5-32.6-33-70.9-33-110-.4-112.3,92.7-203.3,207.8-203.3s184.2,69.5,203.8,161.9c2.9,13.7,4.4,27.6,4.4,41.6,0,112.4-89.5,204.9-204.6,204.9s-43-4.6-56.5-8.4-26.9-8.8-30.4-10.1c-3.6-1.4-7.3-2.1-11.1-2.1-4.1,0-8.3.8-12.1,2.4l-67.8,24.5c-1.5.6-3.1,1.1-4.7,1.2-5.3,0-9.6-4.3-9.6-9.6,0,0,0,0,0-.1,0-1.1.3-2.2.6-3.3l19.6-71Z"/>
  <circle class="st0" cx="160" cy="256" r="32"/>
  <circle class="st0" cx="256" cy="256" r="32"/>
  <circle class="st0" cx="352" cy="256" r="32"/>
</svg>