<?xml version="1.0" encoding="UTF-8"?>
<svg id="Layer_1" xmlns="http://www.w3.org/2000/svg" xmlns:xlink="http://www.w3.org/1999/xlink" version="1.1" viewBox="0 0 500 500">
  <!-- Generator: Adobe Illustrator 29.4.0, SVG Export Plug-In . SVG Version: 2.1.0 Build 152)  -->
  <defs>
    <style>
      .st0 {
        fill: none;
      }

      .st0, .st1 {
        stroke: #2f2f4b;
        stroke-linecap: round;
        stroke-width: 30px;
      }

      .st1 {
        fill: url(#linear-gradient);
      }
    </style>
    <linearGradient id="linear-gradient" x1="12" y1="489.1" x2="4.7" y2="494.6" gradientTransform="translate(-75 18004.7) scale(36.9 -36.3)" gradientUnits="userSpaceOnUse">
      <stop offset="0" stop-color="#006c67"/>
      <stop offset="1" stop-color="#531cb3"/>
    </linearGradient>
  </defs>
  <g id="chatbubbles-outline">
    <path id="Path_154" class="st0" d="M39.2,222.3c-29.9,53.7-27.1,119.6,7.1,170.6,2.6,3.9,4,6.9,3.6,8.9s-13.3,69.1-13.3,69.1c-.6,3.2.5,6.5,3,8.6,1.6,1.3,3.7,2,5.8,2,1.1,0,2.2-.2,3.3-.7l62.8-24.6c4.3-1.7,9.1-1.6,13.4.2,21.6,8.6,44.7,13.2,68,13.4,31.4,0,62.3-8.3,89.4-24"/>
    <path id="Path_153" class="st1" d="M446.6,321.3c-.4-4.9.9-9.7,3.7-13.7.7-1.2,1.5-2.4,2.3-3.5,20.1-29.8,30.8-65,30.8-100.9.3-103-86.6-186.6-194.1-186.6-90.4-1.3-169.6,60.5-190.3,148.5-2.7,12.6-4.1,25.4-4.1,38.2.4,104.7,85.5,189.3,190.2,188.9.3,0,.6,0,.9,0,17.9-.8,35.6-3.7,52.8-8.6,12.6-3.5,25.1-8.1,28.4-9.3,3.3-1.3,6.8-1.9,10.4-1.9,3.9,0,7.7.7,11.3,2.2l63.4,22.5c1.4.6,2.9,1,4.4,1.1,4.9,0,8.9-4,8.9-8.9h0c0-1-.3-2-.6-3l-18.4-65Z"/>
  </g>
</svg>