<?xml version="1.0" encoding="UTF-8"?>
<svg id="Layer_1" xmlns="http://www.w3.org/2000/svg" xmlns:xlink="http://www.w3.org/1999/xlink" version="1.1" viewBox="0 0 512 512">
  <!-- Generator: Adobe Illustrator 29.6.0, SVG Export Plug-In . SVG Version: 2.1.1 Build 207)  -->
  <defs>
    <style>
      .st0 {
        fill: #fff;
      }

      .st1 {
        fill: url(#linear-gradient);
        stroke: #000;
        stroke-miterlimit: 10;
        stroke-width: 10px;
      }
    </style>
    <linearGradient id="linear-gradient" x1="160" y1="89.7" x2="352" y2="422.3" gradientUnits="userSpaceOnUse">
      <stop offset="0" stop-color="#006c67"/>
      <stop offset="1" stop-color="#531cb3"/>
    </linearGradient>
  </defs>
  <path class="st1" d="M448,256c0-106-86-192-192-192s-192,86-192,192,86,192,192,192,192-86,192-192Z"/>
  <path class="st0" d="M350.7,150.9l-117.2,46.9c-16.3,6.5-29.2,19.4-35.7,35.7l-46.9,117.2c-1.6,4.1.4,8.8,4.5,10.4,1.9.8,4,.8,5.9,0l117.2-46.9c16.3-6.5,29.2-19.4,35.7-35.7l46.9-117.2c1.6-4.1-.4-8.8-4.5-10.4-1.9-.8-4-.8-5.9,0h0ZM256,280c-13.3,0-24-10.7-24-24s10.7-24,24-24,24,10.7,24,24-10.7,24-24,24Z"/>
</svg>