<?xml version="1.0" encoding="UTF-8"?>
<svg id="Layer_1" xmlns="http://www.w3.org/2000/svg" xmlns:xlink="http://www.w3.org/1999/xlink" version="1.1" viewBox="0 0 512 512">
  <!-- Generator: Adobe Illustrator 29.6.0, SVG Export Plug-In . SVG Version: 2.1.1 Build 207)  -->
  <defs>
    <style>
      .st0 {
        fill: url(#linear-gradient1);
      }

      .st0, .st1 {
        stroke: #000;
        stroke-miterlimit: 10;
        stroke-width: 10px;
      }

      .st1 {
        fill: url(#linear-gradient);
      }
    </style>
    <linearGradient id="linear-gradient" x1="305.6" y1="127.7" x2="361.5" y2="224.5" gradientUnits="userSpaceOnUse">
      <stop offset="0" stop-color="#531cb3"/>
      <stop offset="1" stop-color="#006c67"/>
    </linearGradient>
    <linearGradient id="linear-gradient1" x1="104.5" y1="103.1" x2="324.4" y2="484" xlink:href="#linear-gradient"/>
  </defs>
  <path class="st1" d="M459.9,53.2c-6-6.6-16.1-7-22.7-1.1-.2.2-.4.3-.5.5l-12.4,12.3c-3.1,3.1-3.1,8.2,0,11.3l11.3,11.3c3.1,3.1,8.2,3.1,11.3,0,0,0,0,0,0,0l12.1-12c6.1-6.1,6.7-16,.9-22.4ZM399.3,90l-180.5,180.2c-1.1,1.1-1.9,2.4-2.3,3.9l-8.4,24.9c-.6,2.1.6,4.2,2.6,4.9.7.2,1.5.2,2.2,0l24.9-8.4c1.5-.4,2.8-1.2,3.9-2.3l180.2-180.5c3.5-3.5,3.5-9.2,0-12.7l-10-10c-3.5-3.5-9.2-3.5-12.7,0Z"/>
  <path class="st0" d="M386.3,193.7l-121.9,122.1c-4.7,4.7-10.5,8.2-16.9,10.2l-25.9,8.7c-19.1,5.4-38.9-5.7-44.3-24.8-1.8-6.4-1.8-13.1,0-19.5l8.7-25.9c2-6.4,5.5-12.2,10.2-16.9l122.1-121.9c3.1-3.1,3.1-8.2,0-11.3-1.5-1.5-3.5-2.3-5.7-2.3H104c-30.9,0-56,25.1-56,56v240c0,30.9,25.1,56,56,56h240c30.9,0,56-25.1,56-56v-208.7c0-4.4-3.6-8-8-8-2.1,0-4.2.8-5.7,2.3Z"/>
</svg>