<?xml version="1.0" encoding="UTF-8"?>
<svg id="Layer_1" xmlns="http://www.w3.org/2000/svg" xmlns:xlink="http://www.w3.org/1999/xlink" version="1.1" viewBox="0 0 512 512">
  <!-- Generator: Adobe Illustrator 29.6.0, SVG Export Plug-In . SVG Version: 2.1.1 Build 207)  -->
  <defs>
    <style>
      .st0 {
        fill: url(#linear-gradient1);
      }

      .st0, .st1 {
        stroke: #000;
        stroke-miterlimit: 10;
        stroke-width: 10px;
      }

      .st1 {
        fill: url(#linear-gradient);
      }
    </style>
    <linearGradient id="linear-gradient" x1="432" y1="256" x2="80" y2="256" gradientUnits="userSpaceOnUse">
      <stop offset="0" stop-color="#531cb3"/>
      <stop offset="1" stop-color="#006c67"/>
    </linearGradient>
    <linearGradient id="linear-gradient1" x1="419.8" y1="118.1" x2="272" y2="118.1" xlink:href="#linear-gradient"/>
  </defs>
  <path class="st1" d="M428,224h-140c-26.5,0-48-21.5-48-48V36c0-2.2-1.8-4-4-4h-92c-35.3,0-64,28.7-64,64v320c0,35.3,28.7,64,64,64h224c35.3,0,64-28.7,64-64v-188c0-2.2-1.8-4-4-4ZM336,384h-160c-8.8,0-16-7.2-16-16s7.2-16,16-16h160c8.8,0,16,7.2,16,16s-7.2,16-16,16ZM336,304h-160c-8.8,0-16-7.2-16-16s7.2-16,16-16h160c8.8,0,16,7.2,16,16s-7.2,16-16,16Z"/>
  <path class="st0" d="M419.2,188.6L275.4,44.8c-.8-.8-2-.8-2.8,0-.4.4-.6.9-.6,1.4v129.8c0,8.8,7.2,16,16,16h129.8c1.1,0,2-.9,2-2,0-.5-.2-1-.6-1.4Z"/>
</svg>