<?xml version="1.0" encoding="UTF-8"?>
<svg id="Layer_1" xmlns="http://www.w3.org/2000/svg" xmlns:xlink="http://www.w3.org/1999/xlink" version="1.1" viewBox="0 0 512 512">
  <!-- Generator: Adobe Illustrator 29.6.0, SVG Export Plug-In . SVG Version: 2.1.1 Build 207)  -->
  <defs>
    <style>
      .st0 {
        fill: url(#linear-gradient);
        stroke: #000;
        stroke-miterlimit: 10;
        stroke-width: 10px;
      }
    </style>
    <linearGradient id="linear-gradient" x1="86.9" y1="81.8" x2="424.7" y2="419.7" gradientUnits="userSpaceOnUse">
      <stop offset="0" stop-color="#006c67"/>
      <stop offset="1" stop-color="#531cb3"/>
    </linearGradient>
  </defs>
  <path class="st0" d="M390.4,75.3c-1.9,0-3.7-.5-5.3-1.4-44.4-23.8-82.8-33.8-128.8-33.8s-89.2,11.3-128.8,33.8c-5.6,3.2-12.5,1-15.7-4.8-3-5.8-1-13,4.6-16.3,42.6-24.2,90.8-36.8,139.9-36.7,49.2,0,92.2,11.3,139.4,36.5,5.7,3.1,7.9,10.3,4.9,16.1-1.8,4-5.8,6.7-10.2,6.7h0ZM59.6,201.3c-2.4,0-4.7-.8-6.7-2.2-5.3-3.9-6.5-11.4-2.8-16.8,22.9-33.6,52-60,86.7-78.5,72.6-38.8,165.5-39.1,238.3-.2,34.7,18.5,63.8,44.6,86.7,78,3.7,5.4,2.5,12.9-2.8,16.8-5,3.7-12,2.7-15.8-2.3-.1-.2-.3-.4-.4-.6-20.8-30.2-47.1-54-78.4-70.6-66.3-35.3-151.2-35.3-217.3.2-31.4,16.8-57.8,40.8-78.6,71-1.8,3.2-5.3,5.2-9,5.1h0ZM204.1,491c-3.1,0-6-1.3-8.1-3.6-20.1-20.9-31-34.4-46.5-63.4-16-29.5-24.3-65.5-24.3-104.2,0-71.3,58.7-129.4,130.8-129.4s130.9,58.1,130.9,129.4c.2,6.4-4.8,11.7-11.2,11.9-6.4.2-11.7-4.8-11.9-11.2,0-.2,0-.5,0-.7,0-58.1-48.3-105.4-107.7-105.4s-107.8,47.3-107.8,105.4,7.4,66.5,21.5,92.4c14.8,27.6,25,39.4,42.8,58.1,4.4,4.8,4.4,12.2,0,17-2.3,2.3-5.3,3.6-8.6,3.7ZM369.9,446.6c-27.5,0-51.8-7.2-71.7-21.4-34.4-24.1-54.9-63.4-55-105.4-.3-6.4,4.7-11.8,11.1-12,6.4-.3,11.8,4.7,12,11.1,0,.3,0,.6,0,1,0,34.1,16.8,66,44.8,85.4,16.4,11.5,35.6,17,58.7,17,8.1-.1,16.1-.9,24-2.4,6.2-1.2,12.2,3.1,13.4,9.8,1.2,6.5-3,12.7-9.5,13.9-9.2,1.8-18.6,2.8-28,2.9h0ZM323.4,496c-1,0-2-.2-3-.5-36.8-10.6-60.8-24.7-86-50.4-32.4-33.4-50.2-77.8-50.2-125.3s31.9-70.6,71.2-70.6,71.2,31.7,71.2,70.6,21.5,46.6,48.1,46.6,48.1-20.9,48.1-46.6c0-90.5-75.1-163.9-167.6-163.9s-125.8,37.9-152.8,96.7c-9,19.4-13.6,42.2-13.6,67.2s1.6,48.2,15.5,86.6c2.3,6.2-.7,13.2-6.7,15.4-5.9,2.2-12.4-.7-14.6-6.6,0-.1-.1-.3-.2-.4-11.2-30.4-16.9-62.6-16.9-95,0-28.8,5.3-55,15.7-77.8,30.8-67,98.9-110.4,173.6-110.4s190.7,84.2,190.7,187.9-31.9,70.6-71.2,70.6-71.2-31.7-71.2-70.6c0-25.7-21.5-46.6-48.1-46.6s-48.1,20.9-48.1,46.6c0,41,15.3,79.4,43.2,108.2,22,22.6,43,35,75.6,44.4,6.2,1.7,9.7,8.4,8.1,14.6-1,5.2-5.6,9-10.9,9.2h0Z"/>
</svg>