<?xml version="1.0" encoding="UTF-8"?>
<svg id="Layer_1" xmlns="http://www.w3.org/2000/svg" version="1.1" xmlns:xlink="http://www.w3.org/1999/xlink" viewBox="0 0 386.17 250.89">
  <!-- Generator: Adobe Illustrator 29.7.1, SVG Export Plug-In . SVG Version: 2.1.1 Build 8)  -->
  <defs>
    <style>
      .st0 {
        fill: #8266ac;
      }

      .st1 {
        fill: #b39dcb;
      }

      .st2 {
        fill: url(#linear-gradient);
      }
    </style>
    <linearGradient id="linear-gradient" x1="-55.46" y1="370.08" x2="-49.22" y2="375.59" gradientTransform="translate(5923.56 12684.11) rotate(-14) scale(46.38 -36.44)" gradientUnits="userSpaceOnUse">
      <stop offset="0" stop-color="#006c67"/>
      <stop offset="1" stop-color="#553e98"/>
    </linearGradient>
  </defs>
  <g id="flame-outline">
    <path id="Path_586" class="st1" d="M164,233.58c-47.14,20.99-111.62-25.62-159.54,12.73-14.9-33.46,5.33-118.99,94.54-158.71,40.32-17.94,87.55.19,105.49,40.51,17.94,40.31-.19,87.53-40.49,105.48Z"/>
    <path id="Path_587" class="st0" d="M141.39,117.31c29.25-13.02,47.78-1.84,55,14.39,7.22,16.22,3.15,37.47-26.11,50.5-29.26,13.03-52.62-.87-72.1,12.67-9.48-21.3,13.96-64.53,43.22-77.55Z"/>
  </g>
  <path id="email-filled" class="st2" d="M319.98,3.99l-169.04,42.15c-15.57,3.88-25.04,19.65-21.16,35.22l30.1,120.74c3.88,15.57,19.65,25.04,35.22,21.16l169.04-42.15c15.57-3.88,25.04-19.65,21.16-35.22l-30.1-120.74c-3.88-15.57-19.65-25.04-35.22-21.16ZM324.47,52.38l-58.4,74.44c-2.34,2.98-6.41,4-9.88,2.46l-86.51-38.31c-4.19-1.85-6.08-6.75-4.23-10.94,1.85-4.19,6.75-6.08,10.94-4.23l80.59,35.65,54.43-69.32c2.78-3.64,7.98-4.34,11.63-1.56,3.64,2.78,4.34,7.98,1.56,11.63-.05.06-.09.12-.14.18Z"/>
</svg>