<?xml version="1.0" encoding="UTF-8"?>
<svg id="Layer_1" xmlns="http://www.w3.org/2000/svg" xmlns:xlink="http://www.w3.org/1999/xlink" version="1.1" viewBox="0 0 512 512">
  <!-- Generator: Adobe Illustrator 29.6.0, SVG Export Plug-In . SVG Version: 2.1.1 Build 207)  -->
  <defs>
    <style>
      .st0 {
        fill: url(#linear-gradient);
        stroke: #000;
        stroke-width: 10px;
      }
    </style>
    <linearGradient id="linear-gradient" x1="181.8" y1="88.3" x2="352.4" y2="383.9" gradientUnits="userSpaceOnUse">
      <stop offset="0" stop-color="#006c67"/>
      <stop offset="1" stop-color="#531cb3"/>
    </linearGradient>
  </defs>
  <path class="st0" d="M200,246.8c8.8,58.6-7.3,90.7-52.9,97.4-50.7,7.5-71.5-26.4-80.3-85.1-11.8-78.9,16-127.9,55.7-131.1,36.1-2.9,68.7,60.1,77.5,118.8ZM223.6,409.5c3.1,33.3-14.9,64.3-42,69.7-27.4,5.4-58.7-16.4-65.1-49.2s17.8-34.6,47.3-40.2,56-20.4,59.8,19.7h0ZM312,150.8c-8.8,58.6,7.3,90.7,52.9,97.4,50.7,7.5,71.5-26.4,80.3-85.1,11.9-78.9-16-128.2-55.7-131.1-36.4-2.6-68.7,60.1-77.5,118.8h0ZM288.4,313.5c-3.1,33.3,14.9,64.3,42,69.7,27.4,5.4,58.7-16.4,65.1-49.2s-17.8-34.6-47.3-40.2-56-20.4-59.8,19.8Z"/>
</svg>