<?xml version="1.0" encoding="UTF-8"?>
<svg id="Layer_1" xmlns="http://www.w3.org/2000/svg" xmlns:xlink="http://www.w3.org/1999/xlink" version="1.1" viewBox="0 0 512 512">
  <!-- Generator: Adobe Illustrator 29.6.0, SVG Export Plug-In . SVG Version: 2.1.1 Build 207)  -->
  <defs>
    <style>
      .st0 {
        fill: url(#linear-gradient);
      }

      .st1 {
        fill: url(#linear-gradient);
      }
    </style>
    <linearGradient id="linear-gradient" x1="138.7" y1="165.6" x2="346.3" y2="525.2" gradientUnits="userSpaceOnUse">
      <stop offset="0" stop-color="#006c67"/>
      <stop offset="1" stop-color="#531cb3"/>
    </linearGradient>
    <linearGradient id="linear-gradient1" x1="168.3" y1="77.4" x2="331.6" y2="360.2" xlink:href="#linear-gradient"/>
  </defs>
  <path class="st1" d="M261.6,101.3c-3.1-3-8-3-11.1,0l-184.1,175.9c-1.6,1.5-2.5,3.6-2.5,5.8v165.1c0,17.7,14.3,32,32,32h96.1c8.8,0,16-7.2,16-16v-136c0-4.4,3.6-8,8-8h80c4.4,0,8,3.6,8,8v136c0,8.8,7.2,16,16,16h96.1c17.7,0,32-14.3,32-32v-165.1c0-2.2-.9-4.3-2.5-5.8l-184-175.9Z"/>
  <path class="st0" d="M490.9,244.1l-74.8-71.6v-108.6c0-8.8-7.2-16-16-16h-48c-8.8,0-16,7.2-16,16v32l-57.9-55.4c-5.4-5.5-13.5-8.6-22.2-8.6s-16.7,3.1-22.1,8.6L21.2,244.1c-6.2,6-7,15.9-1.3,22.4,5.8,6.7,15.9,7.4,22.6,1.6.2-.2.4-.4.6-.6L250.5,69.3c3.1-3,8-3,11.1,0l207.5,198.3c6.4,6.1,16.5,5.9,22.6-.4,6.1-6.4,5.6-16.9-.8-23Z"/>
</svg>