<?xml version="1.0" encoding="UTF-8"?>
<svg id="Layer_1" xmlns="http://www.w3.org/2000/svg" xmlns:xlink="http://www.w3.org/1999/xlink" version="1.1" viewBox="0 0 512 512">
  <!-- Generator: Adobe Illustrator 29.6.0, SVG Export Plug-In . SVG Version: 2.1.1 Build 207)  -->
  <defs>
    <style>
      .st0 {
        fill: url(#linear-gradient);
      }

      .st0, .st1 {
        stroke: #000;
        stroke-miterlimit: 10;
        stroke-width: 10px;
      }

      .st1 {
        fill: url(#linear-gradient);
      }
    </style>
    <linearGradient id="linear-gradient" x1="173.7" y1="155.5" x2="333.8" y2="432.8" gradientUnits="userSpaceOnUse">
      <stop offset="0" stop-color="#006c67"/>
      <stop offset="1" stop-color="#531cb3"/>
    </linearGradient>
    <linearGradient id="linear-gradient1" x1="152" y1="75.9" x2="360" y2="436.1" xlink:href="#linear-gradient"/>
  </defs>
  <path class="st1" d="M323.7,292c-17.4,0-34.2-7.7-47.3-21.7-13-14.1-20.8-32.2-22-51.3-1.5-20.7,4.9-39.8,17.9-53.6s31.2-21.3,51.5-21.3,38.4,7.6,51.3,21.5,19.5,33,18,53.5c-1.3,19.1-9,37.2-22,51.3-13.1,14-29.9,21.7-47.3,21.7ZM163.8,295.4c-29.8,0-55.9-27.5-58.3-61.3-1.2-17.3,4.2-33.3,15.2-45.1,11-11.8,26.2-18,43.1-18s32.1,6.4,43.1,18.1,16.5,27.8,15.2,45c-2.4,33.8-28.6,61.3-58.3,61.3ZM420.4,355.3c-1.6-4.7-5.5-9.7-13.2-14.5-23.5-14.3-52.3-21.9-83.5-21.9s-60.2,7.9-83.5,22.2c-26.2,16.2-43.9,39.8-51,68.2-1.7,6.7-4.1,19.1-1.5,26.1,86.8,33,184.7-.7,232.8-80.2h0ZM163.6,401.4c7.1-28.2,22.1-51.7,45.5-70.8,3.4-2.8,3.9-7.9,1.1-11.3-1-1.2-2.2-2-3.7-2.5-12-3.8-25.7-5.9-42.7-5.9s-49.1,6.5-68.1,18.2c-5.4,3.3-10.7,4.6-14.8,5.8,16.4,36.2,43.5,66.5,77.8,86.6h1.8c.4-6.9,1.4-13.6,3.2-20.2h0Z"/>
  <path class="st0" d="M256,464c-114.7,0-208-93.3-208-208S141.3,48,256,48s208,93.3,208,208-93.3,208-208,208ZM256,80c-97,0-176,79-176,176s79,176,176,176,176-79,176-176-79-176-176-176Z"/>
</svg>