<?xml version="1.0" encoding="UTF-8"?>
<svg id="Layer_1" xmlns="http://www.w3.org/2000/svg" xmlns:xlink="http://www.w3.org/1999/xlink" version="1.1" viewBox="0 0 512 512">
  <!-- Generator: Adobe Illustrator 29.6.0, SVG Export Plug-In . SVG Version: 2.1.1 Build 207)  -->
  <defs>
    <style>
      .st0 {
        fill: url(#linear-gradient1);
      }

      .st0, .st1 {
        stroke: #000;
        stroke-miterlimit: 10;
        stroke-width: 10px;
      }

      .st1 {
        fill: url(#linear-gradient);
      }
    </style>
    <linearGradient id="linear-gradient" x1="160" y1="89.8" x2="352" y2="422.2" gradientUnits="userSpaceOnUse">
      <stop offset="0" stop-color="#531cb3"/>
      <stop offset="1" stop-color="#006c67"/>
    </linearGradient>
    <linearGradient id="linear-gradient1" x1="204" y1="183.5" x2="260" y2="280.5" xlink:href="#linear-gradient"/>
  </defs>
  <path class="st1" d="M256,64c-105.9,0-192,86.1-192,192s86.1,192,192,192,192-86.1,192-192-86.1-192-192-192ZM347.3,347.3c-6.2,6.2-16.4,6.2-22.6,0l-42.8-42.8c-40.1,27.6-94.9,17.4-122.5-22.6s-17.4-94.9,22.6-122.5c40.1-27.6,94.9-17.4,122.5,22.6,20.7,30.1,20.7,69.8,0,99.9l42.8,42.8c6.2,6.2,6.2,16.4,0,22.6h0Z"/>
  <circle class="st0" cx="232" cy="232" r="56"/>
</svg>