<?xml version="1.0" encoding="UTF-8"?>
<svg id="Layer_1" xmlns="http://www.w3.org/2000/svg" xmlns:xlink="http://www.w3.org/1999/xlink" version="1.1" viewBox="0 0 512 512">
  <!-- Generator: Adobe Illustrator 29.6.0, SVG Export Plug-In . SVG Version: 2.1.1 Build 207)  -->
  <defs>
    <style>
      .st0 {
        fill: url(#linear-gradient);
        stroke: #000;
        stroke-miterlimit: 10;
        stroke-width: 10px;
      }
    </style>
    <linearGradient id="linear-gradient" x1="70.9" y1="26.7" x2="284.7" y2="396.9" gradientUnits="userSpaceOnUse">
      <stop offset="0" stop-color="#006c67"/>
      <stop offset="1" stop-color="#531cb3"/>
    </linearGradient>
  </defs>
  <path class="st0" d="M476.6,227.1h-.2c0,0-427.1-177.2-427.1-177.2-7.3-3.1-15.6-2.2-22.2,2.2-6.9,4.5-11.1,12.3-11.1,20.6v113.3c0,11.5,8.2,21.4,19.5,23.6l232.9,43.1c2.2.4,3.6,2.5,3.2,4.7-.3,1.6-1.6,2.9-3.2,3.2l-232.9,43.1c-11.3,2.1-19.5,12-19.5,23.5v113.3c0,7.9,4,15.3,10.6,19.7,3.9,2.6,8.5,4,13.2,4,3.3,0,6.5-.7,9.5-1.9l427.1-176.1h.2c16.2-7.1,23.7-25.9,16.8-42.1-3.2-7.5-9.2-13.5-16.8-16.8Z"/>
</svg>