<?xml version="1.0" encoding="UTF-8"?>
<svg id="Layer_1" xmlns="http://www.w3.org/2000/svg" xmlns:xlink="http://www.w3.org/1999/xlink" version="1.1" viewBox="0 0 512 512">
  <!-- Generator: Adobe Illustrator 29.6.0, SVG Export Plug-In . SVG Version: 2.1.1 Build 207)  -->
  <defs>
    <style>
      .st0 {
        fill: url(#linear-gradient);
        stroke: #000;
        stroke-linecap: round;
        stroke-linejoin: round;
        stroke-width: 10px;
      }
    </style>
    <linearGradient id="linear-gradient" x1="392.3" y1="323.7" x2="8" y2="101.8" gradientUnits="userSpaceOnUse">
      <stop offset="0" stop-color="#531cb3"/>
      <stop offset="1" stop-color="#006c67"/>
    </linearGradient>
  </defs>
  <path class="st0" d="M259.9,262.9l-43.5-113.1c-1.8-4.6-7-7-11.6-5.2-2.4.9-4.3,2.8-5.2,5.2l-43.5,113.1c-.9,2.4-2.8,4.3-5.2,5.2l-113.1,43.5c-4.6,1.8-7,7-5.2,11.6.9,2.4,2.8,4.3,5.2,5.2l113.1,43.5c2.4.9,4.3,2.8,5.2,5.2l43.5,113.1c1.8,4.6,7,7,11.6,5.2,2.4-.9,4.3-2.8,5.2-5.2l43.5-113.1c.9-2.4,2.8-4.3,5.2-5.2l113.1-43.5c4.6-1.8,7-7,5.2-11.6-.9-2.4-2.8-4.3-5.2-5.2l-113.1-43.5c-2.4-.9-4.3-2.8-5.2-5.2h0ZM108,68l-20-52-20,52-52,20,52,20,20,52,20-52,52-20-52-20ZM426.7,117.3l-26.7-69.3-26.7,69.3-69.3,26.7,69.3,26.7,26.7,69.3,26.7-69.3,69.3-26.7-69.3-26.7h0Z"/>
</svg>