<?xml version="1.0" encoding="UTF-8"?>
<svg id="Layer_1" xmlns="http://www.w3.org/2000/svg" xmlns:xlink="http://www.w3.org/1999/xlink" version="1.1" viewBox="0 0 512 512">
  <!-- Generator: Adobe Illustrator 29.6.0, SVG Export Plug-In . SVG Version: 2.1.1 Build 207)  -->
  <defs>
    <style>
      .st0 {
        fill: url(#linear-gradient);
        stroke: #000;
        stroke-miterlimit: 10;
        stroke-width: 10px;
      }
    </style>
    <linearGradient id="linear-gradient" x1="48" y1="256" x2="464" y2="256" gradientUnits="userSpaceOnUse">
      <stop offset="0" stop-color="#006c67"/>
      <stop offset="1" stop-color="#531cb3"/>
    </linearGradient>
  </defs>
  <path class="st0" d="M400,48H112c-35.3,0-64,28.7-64,64v288c0,35.3,28.7,64,64,64h288c35.3,0,64-28.7,64-64V112c0-35.3-28.7-64-64-64ZM364.2,186.3l-134.4,160c-3,3.6-7.4,5.6-12,5.7h-.3c-4.5,0-8.9-1.9-11.9-5.3l-57.6-64c-6.1-6.4-5.8-16.6.7-22.6,6.4-6.1,16.6-5.8,22.6.7.2.2.3.4.5.6l45.3,50.3,122.6-145.9c5.8-6.7,15.9-7.4,22.6-1.6,6.5,5.7,7.4,15.5,1.9,22.2Z"/>
</svg>