<?xml version="1.0" encoding="UTF-8"?>
<svg id="Layer_1" xmlns="http://www.w3.org/2000/svg" version="1.1" viewBox="0 0 512 512">
  <!-- Generator: Adobe Illustrator 29.7.1, SVG Export Plug-In . SVG Version: 2.1.1 Build 8)  -->
  <defs>
    <style>
      .st0 {
        fill: none;
        stroke: #000;
        stroke-linecap: round;
        stroke-linejoin: round;
        stroke-width: 32px;
      }
    </style>
  </defs>
  <path d="M463.23,224.53c-4.27-20.11-8.04-44.83-21.22-57.5-17.29-14.39-34.14,7.23-23.03,25.37,5.69,12.25,10.07,25.24,12.95,38.81,2.69,12.56,4.06,25.44,4.06,38.29,0,104.18-84.6,188.93-188.59,188.93-15.83,0-38.69-4.01-52.16-7.78-14.38-4.03-28.35-9.4-28.96-9.64-5.4-2.08-11.06-3.13-16.8-3.14-6.2-.04-12.23,1.16-17.95,3.51l-57.15,20.62,16.52-59.74.02-.07c2.12-7.82.27-16.9-5.5-27l-.15-.26c-.97-1.63-2.03-3.22-3.15-4.75-19.71-30.04-30.13-64.91-30.13-100.9-.15-49.06,19.07-95.44,54.13-130.61,36.44-36.55,85.34-56.68,137.7-56.68,28.7,0,56.23,6.3,81.06,17.64,22.73,12.66,40.43-12.87,28.57-21.57-33.29-18.26-71.11-28.07-109.62-28.07-60.93,0-117.88,23.47-160.36,66.09-41.11,41.23-63.65,95.68-63.47,153.25,0,42.36,12.32,83.44,35.64,118.81l.53.75c.55.74,1.08,1.52,1.56,2.32,1.08,1.91,1.64,3.31,1.9,4.12l-19.15,69.27c-.61,2.1-1,4.28-1.16,6.46l-.05,1.26c-.02,6.84,2.62,13.28,7.44,18.12,4.82,4.85,11.24,7.53,18.08,7.55h.86s.85-.09.85-.09c3.04-.32,6-1.06,8.82-2.22l67.45-24.34.81-.32c1.84-.78,3.78-1.15,5.84-1.16,1.85,0,3.67.34,5.37,1,.65.25,16,6.16,31.84,10.59,12.87,3.6,39.68,8.96,60.78,8.96,59.66,0,115.35-23.11,156.83-65.06,41.11-41.58,63.75-96.94,63.75-155.87,0-15.09-1.61-30.23-4.77-44.95Z"/>
  <path d="M79.5,391h0,0Z"/>
  <path class="st0" d="M408.73,92.92l-221.56,222.06-18.39,35.98,35.97-18.39,222.07-221.56s-18.08-18.08-18.08-18.08ZM468.17,28.75l-18.08,18.08,18.08,18.09,18.08-18.09c4.99-4.99,4.99-13.09,0-18.08h0c-4.99-4.99-13.09-4.99-18.08,0Z"/>
</svg>