<?xml version="1.0" encoding="UTF-8"?>
<svg id="Layer_1" xmlns="http://www.w3.org/2000/svg" version="1.1" viewBox="0 0 512 512">
  <!-- Generator: Adobe Illustrator 29.7.1, SVG Export Plug-In . SVG Version: 2.1.1 Build 8)  -->
  <defs>
    <style>
      .st0 {
        fill: none;
        stroke: #000;
        stroke-linecap: round;
        stroke-linejoin: round;
        stroke-width: 32px;
      }
    </style>
  </defs>
  <path class="st0" d="M430.27,21.33l-133.62,165.14h78l-19.2,105.56c-.14.78.38,1.53,1.17,1.67.08.01.17.02.25.02h0c.45,0,.88-.22,1.15-.58l133.63-165.17h-78l19.29-105.57c.1-.82-.48-1.56-1.3-1.66-.06,0-.13-.01-.19-.01h0c-.47,0-.91.23-1.19.61Z"/>
  <path d="M156.56,239.5c2.2-.97,4.76.03,5.73,2.23.25.57.38,1.19.37,1.82v34.81c0,8.34,6.76,15.09,15.09,15.09,20.13,0,60.77.15,99.62,24.81,29.7,18.84,60.07,53.13,78.33,117-30.79-29.67-65.96-45.76-96.75-54.31-18.92-5.24-38.37-8.34-57.99-9.24-8.03-.38-16.07-.3-24.09.24h-.39l-.15.03h-.03l1.45,15.03-1.51-15.03c-7.72.78-13.59,7.28-13.58,15.03v34.81c0,3.26-3.32,5.31-6.1,4.04l-120.26-88.54-1.27-.85c-2.1-1.26-2.78-3.99-1.52-6.09.37-.62.9-1.14,1.52-1.52l1.27-.85,120.26-88.54ZM192.84,401.7c2.07,0,4.32.06,6.73.18,13.1.6,31.21,2.6,51.32,8.18,40.03,11.11,87.42,36.28,118.93,92.97,4.06,7.28,13.25,9.9,20.53,5.84,5.37-2.99,8.39-8.95,7.63-15.05-14.01-111.99-56.93-170.92-104.45-201.04-37.58-23.85-76.28-28.44-100.7-29.31v-19.92c0-19.07-15.45-34.54-34.52-34.55-6.68,0-13.22,1.93-18.82,5.57l-120.56,88.75c-16.22,10.13-21.16,31.48-11.04,47.71,2.79,4.47,6.57,8.25,11.04,11.04l120.56,88.75c16,10.39,37.38,5.84,47.77-10.16,3.64-5.6,5.57-12.14,5.57-18.82v-20.13Z"/>
</svg>