<?xml version="1.0" encoding="UTF-8"?>
<svg id="Layer_1" xmlns="http://www.w3.org/2000/svg" version="1.1" viewBox="0 0 800 800">
  <!-- Generator: Adobe Illustrator 29.7.1, SVG Export Plug-In . SVG Version: 2.1.1 Build 8)  -->
  <defs>
    <style>
      .st0 {
        fill: none;
        stroke: #292d32;
        stroke-linecap: round;
        stroke-linejoin: round;
        stroke-width: 50px;
      }
    </style>
  </defs>
  <path class="st0" d="M700,283.33v171c-29.67-23.67-67.33-37.67-108.33-37.67s-79.33,14.33-109.33,38.67c-40.33,31.67-65.67,81.33-65.67,136.33,0,32.67,9.33,64,25.33,90,12.33,20.33,28.33,38,47.33,51.67h-222.67c-116.67,0-166.67-66.67-166.67-166.67v-283.33c0-100,50-166.67,166.67-166.67h266.67c116.67,0,166.67,66.67,166.67,166.67Z"/>
  <path class="st0" d="M233.33,372.67h200"/>
  <path class="st0" d="M233.33,236h311.67"/>
  <path class="st0" d="M235.33,503h87.33"/>
  <path class="st0" d="M766.67,591.67c0,32.67-9.33,64-25.33,90-9.33,16-21,30-34.67,41.33-30.67,27.33-70.67,43.67-115,43.67-38.33,0-73.67-12.33-102.33-33.33-19-13.67-35-31.33-47.33-51.67-16-26-25.33-57.33-25.33-90,0-55,25.33-104.67,65.67-136.33,30-24.33,68.33-38.67,109.33-38.67s78.67,14,108.33,37.67c40.67,32,66.67,81.67,66.67,137.33Z"/>
  <path class="st0" d="M591.67,675c0-46,37.33-83.33,83.33-83.33-46,0-83.33-37.33-83.33-83.33,0,46-37.33,83.33-83.33,83.33,46,0,83.33,37.33,83.33,83.33Z"/>
</svg>