<?xml version="1.0" encoding="UTF-8"?>
<svg id="Layer_1" xmlns="http://www.w3.org/2000/svg" version="1.1" xmlns:xlink="http://www.w3.org/1999/xlink" viewBox="0 0 500 500">
  <!-- Generator: Adobe Illustrator 29.7.1, SVG Export Plug-In . SVG Version: 2.1.1 Build 8)  -->
  <defs>
    <style>
      .st0 {
        fill: #fcd951;
      }

      .st0, .st1, .st2, .st3, .st4 {
        stroke: #000;
      }

      .st0, .st1, .st3, .st4 {
        stroke-width: 10px;
      }

      .st0, .st4 {
        stroke-miterlimit: 10;
      }

      .st5 {
        fill: #fccf1e;
      }

      .st1, .st6, .st4 {
        fill: #fff2c4;
      }

      .st2 {
        stroke-linecap: round;
        stroke-linejoin: round;
        stroke-width: 1.4px;
      }

      .st3 {
        fill: none;
        stroke-linecap: square;
      }

      .st7 {
        fill: url(#linear-gradient);
      }
    </style>
    <linearGradient id="linear-gradient" x1="8.98" y1="487.6" x2="8.98" y2="493.23" gradientTransform="translate(-61.15 16776.19) scale(33.43 -33.72)" gradientUnits="userSpaceOnUse">
      <stop offset="0" stop-color="#006c67"/>
      <stop offset="1" stop-color="#553e98"/>
    </linearGradient>
  </defs>
  <g id="Coin">
    <ellipse class="st0" cx="257.14" cy="232.93" rx="209.18" ry="201.59"/>
    <g>
      <line class="st3" x1="370.83" y1="399.46" x2="146.92" y2="399.46"/>
      <line class="st3" x1="414.68" y1="360.46" x2="104.74" y2="360.46"/>
      <line class="st3" x1="439.52" y1="321.46" x2="79.9" y2="321.46"/>
      <polyline class="st3" points="453.71 282.46 65.71 282.46 64.36 282.46"/>
      <line class="st3" x1="64.36" y1="243.46" x2="459.97" y2="243.46"/>
      <line class="st3" x1="64.36" y1="204.46" x2="459.97" y2="204.46"/>
      <line class="st3" x1="448.31" y1="165.46" x2="71.11" y2="165.46"/>
      <line class="st3" x1="429.63" y1="126.46" x2="89.78" y2="126.46"/>
      <line class="st3" x1="398.21" y1="87.46" x2="121.2" y2="87.46"/>
      <path class="st3" d="M335.17,48.46h-156.27"/>
    </g>
    <circle class="st4" cx="241.3" cy="237.35" r="194.62"/>
    <circle class="st1" cx="244.58" cy="238.83" r="162.92"/>
    <g id="warpspeed-icon-colour">
      <path id="Path_280" class="st7" d="M179.82,189.55c1,4.96,1.12,10.06.34,15.07-23.48,7.46-31.57,39.31-6.38,63.98,19.36,15.33,48.21,11.32,53.64,9.69,13.13-2.38,20.65-12.41,34.73-28.23,6.6,1.29,3.55,15.9,3.55,15.9,0,0-13.63,16.12-22.23,20.54-8.65,3.45-17.88,5.19-27.19,5.12-14.25-.28-38.25-2.29-51.57-12.48-26.6-24.39-30.22-69.5,15.1-89.59ZM211.32,244.85c-6.94-5.93-11.01-14.56-11.17-23.69-.44-9.47-.28-18.97.47-28.42,2.05-18.38,16.14-33.12,34.41-36,24.08-2.25,32.02,13.12,40.36,21.37,4.75.92,9.59,1.25,14.42.96-5.31-12.39-14.45-22.75-26.09-29.56-7.35-3.32-30.68-11.32-51.53,2.85-12.81,7.95-21.64,20.98-24.28,35.83-.83,11.13-1.01,22.3-.56,33.46-.45,6.87,1.15,13.72,4.59,19.69,6.24,8.58,13.49,16.36,21.6,23.19,13.86,2.1,13.35-2.87,14.62-4.5l-16.84-15.11-.02-.08ZM252.69,199.17c13.02-1.68,26.22-1.41,39.15.82,13.53,4.49,23.98,15.36,27.92,29.06,5.74,19.8-15.81,41.8-19.73,42.83-.3,5.34-.31,10.69-.05,16.03,54.36-30.37,26.24-78.74,23.2-82.26-5.97-7.16-13.15-17.68-42.69-18.82-25.4-1.09-36.33-.51-47.13,7.65-6.97,6-13.54,12.45-19.69,19.29-.67,10.59,2.22,11.29,5.06,13.67,9.44-8.08,20.93-26.58,33.98-28.29l-.04.02ZM277.58,248.79c2.23,12.95,2.27,26.18.13,39.14-.71,6.86-11.96,29.58-30.87,32.56-22.18,3.77-36.78-15.19-40-21.94-1.03-.17-10.2-.32-16.67-.05,3.55,9.24,9.46,17.38,17.14,23.62,14.51,12.4,34.88,15.29,52.26,7.41,24.95-10.48,31.2-28.87,32.25-39.14,1.39-11.42,1.75-22.94,1.08-34.42-.86-13.89-3.02-16.68-5.59-20.1-6.2-8.51-13.45-16.19-21.58-22.87-6.16-1.81-12.82-.29-17.57,4.03,4.72,4.31,20.52,10.23,29.43,31.74l-.02.02ZM238.68,229.05c-6.18.03-11.16,5.07-11.13,11.25.03,6.18,5.07,11.16,11.25,11.13,6.15-.03,11.13-5.03,11.13-11.19-.02-6.2-5.06-11.21-11.25-11.2v.02ZM232.08,169.84c-4.54.03-8.21,3.73-8.18,8.28.03,4.54,3.73,8.21,8.28,8.18,4.52-.03,8.18-3.7,8.18-8.23-.02-4.56-3.72-8.24-8.28-8.23ZM246.81,291.73c-4.54.03-8.21,3.73-8.18,8.28.03,4.54,3.73,8.21,8.28,8.18,4.52-.03,8.18-3.7,8.18-8.23-.01-4.56-3.72-8.25-8.28-8.23h0ZM181,240.63c-3.95.02-7.14,3.25-7.12,7.2.02,3.95,3.25,7.14,7.2,7.12,3.94-.02,7.12-3.22,7.12-7.16,0-3.96-3.22-7.17-7.19-7.17,0,0-.02,0-.02,0h.01ZM300.44,221.88c-3.95.02-7.14,3.25-7.12,7.2.02,3.95,3.25,7.14,7.2,7.12,3.94-.02,7.12-3.22,7.12-7.16,0-3.96-3.22-7.17-7.19-7.17,0,0-.02,0-.02,0h.01Z"/>
      <circle id="Ellipse_284" class="st6" cx="180.92" cy="247.74" r="4.22"/>
      <circle id="Ellipse_285" class="st6" cx="300.73" cy="229.18" r="4.22"/>
    </g>
    <circle id="Ellipse_539-2" class="st5" cx="112.59" cy="384.25" r="70.31"/>
    <path id="flash-outline" class="st2" d="M129.75,337.91l-51.93,46.81,25.35,4.01-11.67,33.3c-.09.25.04.52.28.61.03.01.06.02.09.02h0c.15.02.3-.03.4-.13l51.93-46.8-25.34-4.01,11.7-33.31c.08-.26-.06-.53-.32-.61-.03,0-.05-.01-.08-.02h0c-.15-.02-.31.03-.41.14Z"/>
  </g>
</svg>