<?xml version="1.0" encoding="UTF-8"?>
<svg id="Layer_1" xmlns="http://www.w3.org/2000/svg" xmlns:xlink="http://www.w3.org/1999/xlink" version="1.1" viewBox="0 0 512 512">
  <!-- Generator: Adobe Illustrator 29.6.1, SVG Export Plug-In . SVG Version: 2.1.1 Build 9)  -->
  <defs>
    <style>
      .st0 {
        fill: url(#linear-gradient);
      }

      .st0, .st1, .st2, .st3 {
        stroke: #000;
        stroke-width: 32px;
      }

      .st0, .st2, .st3 {
        stroke-linecap: round;
        stroke-linejoin: round;
      }

      .st1 {
        fill: url(#linear-gradient1);
        stroke-miterlimit: 10;
      }

      .st2 {
        fill: url(#linear-gradient3);
      }

      .st3 {
        fill: url(#linear-gradient2);
      }
    </style>
    <linearGradient id="linear-gradient" x1="301.7" y1="104.7" x2="372.5" y2="227.4" gradientUnits="userSpaceOnUse">
      <stop offset="0" stop-color="#006c67"/>
      <stop offset="1" stop-color="#531cb3"/>
    </linearGradient>
    <linearGradient id="linear-gradient1" x1="282.7" y1="306.6" x2="377.2" y2="470.2" gradientUnits="userSpaceOnUse">
      <stop offset="0" stop-color="#006c67"/>
      <stop offset="1" stop-color="#531cb3"/>
    </linearGradient>
    <linearGradient id="linear-gradient2" x1="119.4" y1="135.1" x2="176.3" y2="233.7" gradientUnits="userSpaceOnUse">
      <stop offset="0" stop-color="#006c67"/>
      <stop offset="1" stop-color="#531cb3"/>
    </linearGradient>
    <linearGradient id="linear-gradient3" x1="96" y1="301.5" x2="146.2" y2="388.5" gradientUnits="userSpaceOnUse">
      <stop offset="0" stop-color="#006c67"/>
      <stop offset="1" stop-color="#531cb3"/>
    </linearGradient>
  </defs>
  <path class="st0" d="M402,168c-2.9,40.7-33.1,72-66,72s-63.1-31.3-66-72c-3-42.3,26.4-72,66-72s69,30.5,66,72Z"/>
  <path class="st1" d="M336,304c-65.2,0-127.8,32.4-143.5,95.4-2.1,8.3,3.1,16.6,11.7,16.6h263.7c8.6,0,13.8-8.2,11.7-16.6-15.7-64.1-78.4-95.4-143.6-95.4Z"/>
  <path class="st3" d="M200,185.9c-2.3,32.5-26.7,58.1-53,58.1s-50.7-25.6-53-58.1c-2.4-33.8,21.3-57.9,53-57.9s55.4,24.8,53,57.9Z"/>
  <path class="st2" d="M206,306c-18.1-8.3-37.9-11.5-59-11.5-52,0-102.1,25.9-114.7,76.2-1.6,6.7,2.5,13.2,9.4,13.2h112.3c4.9-51.3,52-78,52-78Z"/>
</svg>